<svg width="80" height="80" viewBox="0 0 80 80" fill="none" xmlns="http://www.w3.org/2000/svg">
<path d="M24.3896 23.2096C24.5751 23.2096 24.7535 23.2836 24.8848 23.4147C25.016 23.5459 25.0898 23.7242 25.0898 23.9098C25.0898 24.0955 25.016 24.2737 24.8848 24.4049C24.7535 24.5361 24.5752 24.61 24.3896 24.61H24.04V34.07H25.7197C25.9053 34.07 26.0836 34.1438 26.2148 34.275C26.3461 34.4063 26.4199 34.5845 26.4199 34.7702C26.4199 34.9558 26.3461 35.134 26.2148 35.2653C26.0836 35.3964 25.9053 35.4704 25.7197 35.4704H13C12.8144 35.4703 12.6361 35.3965 12.5049 35.2653C12.3736 35.134 12.2998 34.9558 12.2998 34.7702C12.2998 34.5846 12.3737 34.4063 12.5049 34.275C12.6361 34.1438 12.8144 34.07 13 34.07H14.6504V24.61H14.2998C14.2536 24.61 14.2078 24.6053 14.1631 24.5963C14.0731 24.5784 13.9875 24.5428 13.9111 24.4918C13.8732 24.4665 13.8374 24.4376 13.8047 24.4049C13.772 24.3722 13.743 24.3365 13.7178 24.2985C13.667 24.2222 13.632 24.1365 13.6143 24.0465C13.6054 24.0018 13.6006 23.9561 13.6006 23.9098C13.6006 23.8633 13.6053 23.8171 13.6143 23.7721C13.6321 23.6825 13.6672 23.5972 13.7178 23.5211C13.743 23.4832 13.772 23.4474 13.8047 23.4147C13.8375 23.3819 13.873 23.3522 13.9111 23.3268C13.9874 23.276 14.0732 23.2412 14.1631 23.2233C14.2078 23.2144 14.2536 23.2096 14.2998 23.2096H24.3896Z" fill="#BDC3CE"/>
<path d="M65.2998 23.2096C65.4854 23.2096 65.6637 23.2836 65.7949 23.4147C65.9261 23.5459 65.9999 23.7242 66 23.9098C66 24.0955 65.9262 24.2737 65.7949 24.4049C65.6637 24.5362 65.4855 24.61 65.2998 24.61H64.9502V34.07H66.6299C66.7691 34.07 66.9044 34.1111 67.0186 34.1872C67.0566 34.2125 67.0922 34.2422 67.125 34.275C67.1578 34.3079 67.1875 34.3434 67.2129 34.3815C67.2635 34.4575 67.2984 34.543 67.3164 34.6325C67.3254 34.6775 67.3301 34.7236 67.3301 34.7702C67.3301 34.8164 67.3253 34.8622 67.3164 34.9069C67.2895 35.0417 67.2235 35.1667 67.125 35.2653C66.9937 35.3965 66.8155 35.4704 66.6299 35.4704H53.8799C53.6943 35.4703 53.516 35.3965 53.3848 35.2653C53.2535 35.134 53.1797 34.9558 53.1797 34.7702C53.1797 34.5846 53.2536 34.4063 53.3848 34.275C53.516 34.1438 53.6943 34.07 53.8799 34.07H55.5605V24.61H55.21C55.1634 24.61 55.1173 24.6054 55.0723 24.5963C54.9379 24.5694 54.8132 24.5033 54.7148 24.4049C54.5836 24.2737 54.5098 24.0954 54.5098 23.9098C54.5098 23.7242 54.5836 23.5459 54.7148 23.4147C54.8134 23.3162 54.9385 23.2502 55.0732 23.2233C55.118 23.2144 55.1637 23.2096 55.21 23.2096H65.2998Z" fill="#BDC3CE"/>
<path d="M19.4082 8.01333C19.4326 8.01555 19.4572 8.01844 19.4814 8.0231C19.5058 8.02776 19.5299 8.03421 19.5537 8.04165C19.6187 8.06195 19.6779 8.09422 19.7334 8.13149L20.2803 8.40982C21.2611 8.74057 22.089 9.41599 22.6104 10.3102C22.986 11.2443 23.1227 12.2562 23.0137 13.2565C23.172 13.2733 23.3209 13.3412 23.4346 13.4547C23.5658 13.586 23.6396 13.7643 23.6396 13.9499C23.6396 14.1355 23.5658 14.3137 23.4346 14.445C23.3034 14.576 23.1258 14.6499 22.9404 14.65H15.75C15.5644 14.65 15.3861 14.5762 15.2549 14.445C15.1237 14.3137 15.0498 14.1355 15.0498 13.9499C15.0498 13.7643 15.1236 13.586 15.2549 13.4547C15.3628 13.3468 15.5029 13.2796 15.6523 13.2584C15.5441 12.2673 15.6826 11.2644 16.0596 10.3405C16.5777 9.4348 17.4051 8.7456 18.3896 8.40005C18.4766 8.36279 18.5635 8.3219 18.6504 8.27896C18.7376 8.23584 18.8248 8.19065 18.9121 8.14517C18.9749 8.09845 19.0441 8.06089 19.1191 8.03774C19.2065 8.01078 19.2986 8.00154 19.3896 8.0104C19.3958 8.011 19.4021 8.01257 19.4082 8.01333Z" fill="#BDC3CE"/>
<path d="M60.4609 8.03774L60.4805 8.04556C60.5284 8.05874 60.5754 8.07681 60.6201 8.10024L61.25 8.41958C62.2309 8.75032 63.0587 9.42572 63.5801 10.32C63.9553 11.2528 64.0926 12.2633 63.9844 13.2624C64.1199 13.2889 64.2456 13.3557 64.3447 13.4547C64.476 13.586 64.5498 13.7643 64.5498 13.9499C64.5498 14.1355 64.476 14.3137 64.3447 14.445C64.2135 14.5762 64.0352 14.65 63.8496 14.65H56.6602C56.4745 14.65 56.2963 14.5762 56.165 14.445C56.0338 14.3137 55.96 14.1355 55.96 13.9499C55.96 13.7643 56.0338 13.586 56.165 13.4547C56.273 13.3468 56.413 13.2795 56.5625 13.2584C56.4591 12.2672 56.5975 11.2649 56.9697 10.3395C57.4879 9.43393 58.3153 8.74555 59.2998 8.40005C59.5038 8.31263 59.7081 8.20613 59.9121 8.09927L59.9297 8.0895C60.0103 8.04608 60.0993 8.01931 60.1904 8.0104H60.3271C60.3725 8.01498 60.4173 8.02428 60.4609 8.03774Z" fill="#BDC3CE"/>
<path d="M39.7598 27.5195C39.9453 27.5195 40.1236 27.5935 40.2549 27.7246C40.3861 27.8558 40.4599 28.0342 40.46 28.2197V30.4502C41.31 30.8002 42.16 31.1302 43 31.4502C46.8899 32.9402 50.5502 34.3497 52.5303 37.5596C52.7742 37.9479 52.9828 38.3572 53.1592 38.7803C53.2425 38.8255 53.3249 38.8687 53.4053 38.9111L53.46 38.9404C54.3176 39.2965 55.0248 39.9394 55.46 40.7598C55.6609 41.2273 55.7768 41.7266 55.8057 42.2344C55.8058 42.2367 55.8073 42.2486 55.8076 42.251C55.8086 42.2575 55.8096 42.264 55.8096 42.2705V47C55.797 47.1778 55.7185 47.3445 55.5889 47.4668C55.4593 47.589 55.2884 47.658 55.1104 47.6602H24.3799C24.288 47.6601 24.1972 47.6416 24.1123 47.6064C24.0274 47.5713 23.9498 47.5201 23.8848 47.4551C23.8198 47.3901 23.7686 47.3124 23.7334 47.2275C23.6983 47.1427 23.6797 47.0518 23.6797 46.96V42.2598C23.6889 41.7214 23.7978 41.1895 24 40.6904C24.4352 39.87 25.1423 39.2262 26 38.8701C26.1242 38.808 26.2469 38.7434 26.3711 38.6748C26.547 38.2815 26.7468 37.8992 26.9697 37.5303C28.9697 34.3103 32.59 32.9099 36.46 31.4199C37.3271 31.0904 38.1935 30.7518 39.0605 30.3877V28.2197C39.0606 28.0342 39.1334 27.8558 39.2646 27.7246C39.3959 27.5934 39.5742 27.5196 39.7598 27.5195Z" fill="#BDC3CE"/>
<path d="M71 72.06H9.00005C8.8144 72.06 8.63635 71.9863 8.50507 71.855C8.3738 71.7237 8.30005 71.5457 8.30005 71.36C8.30005 71.1744 8.3738 70.9963 8.50507 70.8651C8.63635 70.7338 8.8144 70.66 9.00005 70.66H71C71.1857 70.66 71.3637 70.7338 71.495 70.8651C71.6263 70.9963 71.7 71.1744 71.7 71.36C71.7 71.5457 71.6263 71.7237 71.495 71.855C71.3637 71.9863 71.1857 72.06 71 72.06Z" fill="#1E1E1E"/>
<path d="M46.6699 71.3C46.578 71.3 46.4869 71.2819 46.402 71.2467C46.3171 71.2115 46.2399 71.16 46.1749 71.095C46.1099 71.03 46.0584 70.9528 46.0232 70.8679C45.988 70.783 45.9699 70.6919 45.9699 70.6V64.09C46.0599 61.67 46.1599 58.96 45.2899 56.71C44.4199 54.46 42.9099 53.63 41.0999 52.53C40.6099 52.22 40.0999 51.92 39.6099 51.53C39.4672 51.4221 39.3712 51.2636 39.3416 51.0871C39.3121 50.9106 39.3513 50.7295 39.4511 50.581C39.551 50.4325 39.7039 50.3279 39.8785 50.2886C40.0531 50.2494 40.2361 50.2785 40.3899 50.37C40.8699 50.7 41.3899 50.99 41.8299 51.28C43.6899 52.42 45.6099 53.59 46.5999 56.15C47.5899 58.71 47.4699 61.54 47.3699 64.06V70.6C47.3699 70.6919 47.3518 70.783 47.3166 70.8679C47.2814 70.9528 47.2299 71.03 47.1649 71.095C47.0999 71.16 47.0227 71.2115 46.9378 71.2467C46.8528 71.2819 46.7618 71.3 46.6699 71.3Z" fill="#1E1E1E"/>
<path d="M33.33 71.39C33.2381 71.39 33.147 71.3719 33.0621 71.3367C32.9772 71.3015 32.9 71.25 32.835 71.185C32.77 71.12 32.7185 71.0428 32.6833 70.9579C32.6481 70.8729 32.63 70.7819 32.63 70.69V64.09C32.53 61.59 32.43 58.73 33.4 56.2C34.37 53.67 36.31 52.47 38.17 51.33C38.65 51.04 39.17 50.75 39.61 50.42C39.6859 50.3626 39.7728 50.3213 39.8652 50.2986C39.9576 50.2759 40.0537 50.2723 40.1476 50.288C40.2415 50.3037 40.3312 50.3384 40.4112 50.3899C40.4912 50.4415 40.5599 50.5088 40.613 50.5878C40.6661 50.6668 40.7026 50.7558 40.7201 50.8493C40.7377 50.9429 40.736 51.039 40.7151 51.1319C40.6942 51.2248 40.6546 51.3124 40.5987 51.3894C40.5428 51.4665 40.4718 51.5313 40.39 51.58C39.9 51.92 39.39 52.22 38.9 52.58C37.09 53.68 35.53 54.64 34.71 56.76C33.89 58.88 33.94 61.76 34.03 64.11V70.74C34.0173 70.9168 33.938 71.0823 33.8081 71.2029C33.6782 71.3236 33.5073 71.3904 33.33 71.39Z" fill="#1E1E1E"/>
<path d="M22.3301 14C22.2386 13.9962 22.1487 13.9741 22.0658 13.9352C21.9828 13.8963 21.9085 13.8413 21.8471 13.7733C21.7856 13.7054 21.7383 13.6259 21.708 13.5394C21.6776 13.453 21.6647 13.3614 21.6701 13.27C21.7756 12.4845 21.6899 11.6852 21.4201 10.94C21.0081 10.3331 20.4013 9.88505 19.7001 9.66998L19.0001 9.32998C18.8371 9.24099 18.7155 9.09171 18.6613 8.91413C18.6071 8.73655 18.6246 8.5448 18.7101 8.37998C18.7522 8.29868 18.8101 8.22658 18.8803 8.16788C18.9506 8.10917 19.0318 8.06504 19.1193 8.03805C19.2068 8.01106 19.2988 8.00175 19.3899 8.01066C19.481 8.01958 19.5695 8.04654 19.6501 8.08998L20.2801 8.40997C21.261 8.74071 22.0887 9.41572 22.6101 10.31C22.9925 11.2607 23.13 12.2923 23.0101 13.31C23.0076 13.4905 22.9354 13.663 22.8087 13.7916C22.682 13.9202 22.5105 13.9948 22.3301 14Z" fill="#1E1E1E"/>
<path d="M16.3599 14C16.181 14.0003 16.0087 13.9321 15.8785 13.8093C15.7484 13.6866 15.6701 13.5187 15.6599 13.34C15.5347 12.3223 15.6724 11.2894 16.0599 10.34C16.5781 9.43428 17.4053 8.74556 18.3899 8.40003C18.5999 8.31003 18.8099 8.20003 19.0199 8.09003C19.1843 8.00383 19.3763 7.98649 19.5535 8.04181C19.7307 8.09714 19.8787 8.22059 19.9649 8.38503C20.0511 8.54946 20.0684 8.7414 20.0131 8.91862C19.9578 9.09585 19.8343 9.24383 19.6699 9.33003L18.9999 9.67003C18.3148 9.89049 17.7234 10.3341 17.3199 10.93C17.0501 11.6752 16.9643 12.4746 17.0699 13.26C17.0753 13.3515 17.0624 13.4431 17.032 13.5295C17.0016 13.6159 16.9543 13.6954 16.8929 13.7634C16.8315 13.8313 16.7571 13.8864 16.6742 13.9253C16.5913 13.9642 16.5014 13.9862 16.4099 13.99L16.3599 14Z" fill="#1E1E1E"/>
<path d="M24.3901 72H14.3001C14.1144 72 13.9364 71.9263 13.8051 71.795C13.6738 71.6637 13.6001 71.4857 13.6001 71.3V34.77C13.6001 34.5844 13.6738 34.4063 13.8051 34.275C13.9364 34.1438 14.1144 34.07 14.3001 34.07C14.4857 34.07 14.6638 34.1438 14.7951 34.275C14.9263 34.4063 15.0001 34.5844 15.0001 34.77V70.57H23.6901V34.77C23.6901 34.5844 23.7638 34.4063 23.8951 34.275C24.0264 34.1438 24.2044 34.07 24.3901 34.07C24.5757 34.07 24.7538 34.1438 24.8851 34.275C25.0163 34.4063 25.0901 34.5844 25.0901 34.77V71.27C25.0941 71.3644 25.079 71.4587 25.0457 71.5471C25.0123 71.6355 24.9614 71.7163 24.896 71.7845C24.8306 71.8527 24.752 71.907 24.6651 71.944C24.5781 71.981 24.4846 72.0001 24.3901 72Z" fill="#1E1E1E"/>
<path d="M16.3399 24.61C16.1542 24.61 15.9762 24.5362 15.8449 24.405C15.7136 24.2737 15.6399 24.0956 15.6399 23.91V14C15.6771 13.8477 15.7643 13.7123 15.8876 13.6155C16.0109 13.5187 16.1631 13.4661 16.3199 13.4661C16.4766 13.4661 16.6289 13.5187 16.7522 13.6155C16.8755 13.7123 16.9627 13.8477 16.9999 14V24C16.9771 24.1622 16.899 24.3115 16.7787 24.4227C16.6584 24.5339 16.5034 24.6 16.3399 24.61Z" fill="#1E1E1E"/>
<path d="M22.3499 24.61C22.1651 24.6074 21.9885 24.5328 21.8578 24.4021C21.7271 24.2714 21.6525 24.0948 21.6499 23.91V14C21.6499 13.8143 21.7237 13.6363 21.8549 13.505C21.9862 13.3737 22.1643 13.3 22.3499 13.3C22.5356 13.3 22.7136 13.3737 22.8449 13.505C22.9762 13.6363 23.0499 13.8143 23.0499 14V24C23.0279 24.1696 22.9446 24.3254 22.8156 24.4377C22.6866 24.5501 22.521 24.6114 22.3499 24.61Z" fill="#1E1E1E"/>
<path d="M15.3499 35.47C15.1643 35.47 14.9862 35.3963 14.8549 35.265C14.7237 35.1337 14.6499 34.9557 14.6499 34.77V23.91C14.6499 23.7244 14.7237 23.5463 14.8549 23.415C14.9862 23.2838 15.1643 23.21 15.3499 23.21C15.5356 23.21 15.7136 23.2838 15.8449 23.415C15.9762 23.5463 16.0499 23.7244 16.0499 23.91V34.77C16.0499 34.8619 16.0318 34.953 15.9966 35.0379C15.9614 35.1228 15.9099 35.2 15.8449 35.265C15.7799 35.33 15.7027 35.3816 15.6178 35.4167C15.5329 35.4519 15.4418 35.47 15.3499 35.47Z" fill="#1E1E1E"/>
<path d="M23.3399 35.47C23.1542 35.47 22.9762 35.3963 22.8449 35.265C22.7136 35.1337 22.6399 34.9557 22.6399 34.77V23.91C22.6399 23.7244 22.7136 23.5463 22.8449 23.415C22.9762 23.2838 23.1542 23.21 23.3399 23.21C23.5255 23.21 23.7036 23.2838 23.8349 23.415C23.9661 23.5463 24.0399 23.7244 24.0399 23.91V34.77C24.0399 34.9557 23.9661 35.1337 23.8349 35.265C23.7036 35.3963 23.5255 35.47 23.3399 35.47Z" fill="#1E1E1E"/>
<path d="M24.3901 24.61H14.3001C14.1144 24.61 13.9364 24.5363 13.8051 24.405C13.6738 24.2737 13.6001 24.0957 13.6001 23.91C13.6001 23.7244 13.6738 23.5463 13.8051 23.415C13.9364 23.2838 14.1144 23.21 14.3001 23.21H24.3901C24.5757 23.21 24.7538 23.2838 24.8851 23.415C25.0163 23.5463 25.0901 23.7244 25.0901 23.91C25.0901 24.0957 25.0163 24.2737 24.8851 24.405C24.7538 24.5363 24.5757 24.61 24.3901 24.61Z" fill="#1E1E1E"/>
<path d="M22.94 14.65H15.75C15.5644 14.65 15.3863 14.5763 15.2551 14.445C15.1238 14.3137 15.05 14.1357 15.05 13.95C15.05 13.7643 15.1238 13.5863 15.2551 13.455C15.3863 13.3238 15.5644 13.25 15.75 13.25H22.94C23.1257 13.25 23.3037 13.3238 23.435 13.455C23.5663 13.5863 23.64 13.7643 23.64 13.95C23.64 14.1357 23.5663 14.3137 23.435 14.445C23.3037 14.5763 23.1257 14.65 22.94 14.65Z" fill="#1E1E1E"/>
<path d="M25.72 35.47H13C12.8144 35.47 12.6363 35.3963 12.5051 35.265C12.3738 35.1337 12.3 34.9557 12.3 34.77C12.3 34.5844 12.3738 34.4063 12.5051 34.275C12.6363 34.1438 12.8144 34.07 13 34.07H25.72C25.9057 34.07 26.0837 34.1438 26.215 34.275C26.3463 34.4063 26.42 34.5844 26.42 34.77C26.42 34.9557 26.3463 35.1337 26.215 35.265C26.0837 35.3963 25.9057 35.47 25.72 35.47Z" fill="#1E1E1E"/>
<path d="M63.24 14C63.1485 13.9962 63.0586 13.9741 62.9757 13.9352C62.8928 13.8963 62.8184 13.8413 62.757 13.7733C62.6955 13.7054 62.6482 13.6259 62.6179 13.5394C62.5875 13.453 62.5746 13.3614 62.58 13.27C62.6872 12.4838 62.5979 11.6832 62.32 10.94C61.9231 10.342 61.3339 9.89747 60.65 9.67998L59.97 9.33998C59.8056 9.25378 59.6821 9.1058 59.6268 8.92857C59.5715 8.75135 59.5888 8.55941 59.675 8.39498C59.7612 8.23054 59.9092 8.10708 60.0864 8.05176C60.2636 7.99644 60.4556 8.01378 60.62 8.09998L61.25 8.41998C62.2309 8.75071 63.0586 9.42572 63.58 10.32C63.9624 11.2707 64.0999 12.3023 63.98 13.32C63.9775 13.4137 63.9562 13.5059 63.9173 13.5912C63.8785 13.6765 63.8229 13.7531 63.7539 13.8166C63.6849 13.88 63.6038 13.9289 63.5155 13.9604C63.4273 13.9919 63.3336 14.0054 63.24 14Z" fill="#1E1E1E"/>
<path d="M57.2699 14C57.091 14.0003 56.9187 13.932 56.7885 13.8093C56.6584 13.6865 56.5801 13.5186 56.5699 13.34C56.45 12.3223 56.5875 11.2907 56.9699 10.34C57.4881 9.43423 58.3153 8.7455 59.2999 8.39997C59.5099 8.30997 59.7199 8.19998 59.9299 8.08998C60.0105 8.04654 60.0989 8.01958 60.1901 8.01066C60.2812 8.00175 60.3732 8.01106 60.4606 8.03805C60.5481 8.06504 60.6294 8.10917 60.6996 8.16788C60.7699 8.22658 60.8278 8.29868 60.8699 8.37998C60.9554 8.5448 60.9729 8.73655 60.9187 8.91413C60.8645 9.09171 60.7429 9.24099 60.5799 9.32998L59.8999 9.66998C59.2148 9.89043 58.6234 10.334 58.2199 10.93C57.9594 11.6775 57.884 12.4769 57.9999 13.26C58.0053 13.3514 57.9924 13.443 57.962 13.5294C57.9316 13.6159 57.8844 13.6954 57.8229 13.7633C57.7615 13.8313 57.6871 13.8863 57.6042 13.9252C57.5213 13.9641 57.4314 13.9862 57.3399 13.99L57.2699 14Z" fill="#1E1E1E"/>
<path d="M65.3 72H55.21C55.1181 72 55.0271 71.9819 54.9421 71.9467C54.8572 71.9115 54.78 71.86 54.715 71.795C54.65 71.73 54.5985 71.6528 54.5633 71.5679C54.5281 71.483 54.51 71.3919 54.51 71.3V34.77C54.51 34.5844 54.5838 34.4063 54.715 34.275C54.8463 34.1438 55.0244 34.07 55.21 34.07C55.3957 34.07 55.5737 34.1438 55.705 34.275C55.8363 34.4063 55.91 34.5844 55.91 34.77V70.57H64.6V34.77C64.6 34.5844 64.6738 34.4063 64.805 34.275C64.9363 34.1438 65.1144 34.07 65.3 34.07C65.4857 34.07 65.6637 34.1438 65.795 34.275C65.9263 34.4063 66 34.5844 66 34.77V71.27C66.0041 71.3644 65.989 71.4587 65.9556 71.5471C65.9222 71.6355 65.8713 71.7163 65.8059 71.7845C65.7405 71.8527 65.662 71.907 65.575 71.944C65.4881 71.981 65.3945 72.0001 65.3 72Z" fill="#1E1E1E"/>
<path d="M57.25 24.61C57.1581 24.61 57.0671 24.5919 56.9822 24.5567C56.8972 24.5216 56.8201 24.47 56.7551 24.405C56.6901 24.34 56.6385 24.2628 56.6033 24.1779C56.5682 24.093 56.55 24.002 56.55 23.91V14C56.55 13.8077 56.6264 13.6233 56.7624 13.4874C56.8984 13.3514 57.0828 13.275 57.2751 13.275C57.4673 13.275 57.6517 13.3514 57.7877 13.4874C57.9237 13.6233 58 13.8077 58 14V24C57.9752 24.1776 57.884 24.3392 57.7449 24.4524C57.6058 24.5655 57.429 24.6219 57.25 24.61Z" fill="#1E1E1E"/>
<path d="M63.2601 24.61C63.0752 24.6074 62.8987 24.5329 62.7679 24.4021C62.6372 24.2714 62.5626 24.0949 62.5601 23.91V14C62.5601 13.8091 62.6359 13.6259 62.7709 13.4909C62.906 13.3559 63.0891 13.28 63.2801 13.28C63.471 13.28 63.6541 13.3559 63.7892 13.4909C63.9242 13.6259 64.0001 13.8091 64.0001 14V24C63.9775 24.1768 63.8884 24.3383 63.7509 24.4517C63.6134 24.565 63.4379 24.6216 63.2601 24.61Z" fill="#1E1E1E"/>
<path d="M56.2601 35.47C56.0744 35.47 55.8964 35.3963 55.7651 35.265C55.6338 35.1337 55.5601 34.9557 55.5601 34.77V23.91C55.5601 23.7244 55.6338 23.5463 55.7651 23.415C55.8964 23.2838 56.0744 23.21 56.2601 23.21C56.4457 23.21 56.6238 23.2838 56.755 23.415C56.8863 23.5463 56.9601 23.7244 56.9601 23.91V34.77C56.9601 34.9557 56.8863 35.1337 56.755 35.265C56.6238 35.3963 56.4457 35.47 56.2601 35.47Z" fill="#1E1E1E"/>
<path d="M64.25 35.47C64.1581 35.47 64.0671 35.4519 63.9822 35.4167C63.8972 35.3816 63.8201 35.33 63.7551 35.265C63.6901 35.2 63.6385 35.1228 63.6033 35.0379C63.5682 34.953 63.55 34.8619 63.55 34.77V23.91C63.55 23.7244 63.6238 23.5463 63.7551 23.415C63.8863 23.2838 64.0644 23.21 64.25 23.21C64.4357 23.21 64.6137 23.2838 64.745 23.415C64.8763 23.5463 64.95 23.7244 64.95 23.91V34.77C64.9475 34.9549 64.8729 35.1314 64.7422 35.2621C64.6114 35.3929 64.4349 35.4674 64.25 35.47Z" fill="#1E1E1E"/>
<path d="M65.3 24.61H55.21C55.0244 24.61 54.8463 24.5363 54.715 24.405C54.5838 24.2737 54.51 24.0957 54.51 23.91C54.51 23.7244 54.5838 23.5463 54.715 23.415C54.8463 23.2838 55.0244 23.21 55.21 23.21H65.3C65.4857 23.21 65.6637 23.2838 65.795 23.415C65.9263 23.5463 66 23.7244 66 23.91C66 24.0957 65.9263 24.2737 65.795 24.405C65.6637 24.5363 65.4857 24.61 65.3 24.61Z" fill="#1E1E1E"/>
<path d="M63.85 14.65H56.66C56.4743 14.65 56.2963 14.5763 56.165 14.445C56.0337 14.3137 55.96 14.1357 55.96 13.95C55.96 13.7643 56.0337 13.5863 56.165 13.455C56.2963 13.3238 56.4743 13.25 56.66 13.25H63.85C64.0356 13.25 64.2137 13.3238 64.3449 13.455C64.4762 13.5863 64.55 13.7643 64.55 13.95C64.55 14.1357 64.4762 14.3137 64.3449 14.445C64.2137 14.5763 64.0356 14.65 63.85 14.65Z" fill="#1E1E1E"/>
<path d="M66.6299 35.47H53.8799C53.6943 35.47 53.5162 35.3963 53.385 35.265C53.2537 35.1337 53.1799 34.9557 53.1799 34.77C53.1799 34.5844 53.2537 34.4063 53.385 34.275C53.5162 34.1438 53.6943 34.07 53.8799 34.07H66.6299C66.8156 34.07 66.9936 34.1438 67.1249 34.275C67.2562 34.4063 67.3299 34.5844 67.3299 34.77C67.3299 34.9557 67.2562 35.1337 67.1249 35.265C66.9936 35.3963 66.8156 35.47 66.6299 35.47Z" fill="#1E1E1E"/>
<path d="M26.87 39.94C26.7805 39.9542 26.6894 39.9542 26.6 39.94C26.4294 39.8691 26.2937 39.7337 26.2225 39.5633C26.1513 39.3928 26.1504 39.2011 26.22 39.03C26.4296 38.5108 26.6804 38.0092 26.97 37.53C28.97 34.31 32.59 32.91 36.46 31.42C37.46 31.04 38.46 30.65 39.46 30.22C39.6313 30.1494 39.8234 30.1487 39.9953 30.2178C40.1671 30.2869 40.3052 30.4205 40.38 30.59C40.4176 30.6745 40.4379 30.7657 40.4396 30.8582C40.4413 30.9507 40.4244 31.0426 40.3899 31.1284C40.3554 31.2142 40.304 31.2922 40.2387 31.3578C40.1734 31.4234 40.0956 31.4751 40.01 31.51C39.01 31.94 38.01 32.34 36.95 32.73C33.31 34.13 29.88 35.45 28.16 38.26C27.9058 38.67 27.6883 39.1017 27.51 39.55C27.4494 39.6675 27.3576 39.766 27.2447 39.8348C27.1318 39.9036 27.0022 39.94 26.87 39.94Z" fill="#1E1E1E"/>
<path d="M52.6001 39.93C52.4601 39.93 52.3234 39.8881 52.2076 39.8097C52.0917 39.7313 52.002 39.6199 51.9501 39.49C51.7829 39.074 51.5752 38.6754 51.3301 38.3C49.6001 35.49 46.1501 34.16 42.4901 32.76C41.4901 32.38 40.4901 31.99 39.4901 31.56C39.3636 31.5072 39.2554 31.4183 39.179 31.3046C39.1026 31.1908 39.0612 31.0571 39.0601 30.92V28.22C39.0601 28.0344 39.1338 27.8563 39.2651 27.725C39.3964 27.5938 39.5744 27.52 39.7601 27.52C39.9457 27.52 40.1238 27.5938 40.255 27.725C40.3863 27.8563 40.4601 28.0344 40.4601 28.22V30.45C41.3101 30.8 42.1601 31.13 43.0001 31.45C46.8901 32.94 50.5501 34.35 52.5301 37.56C52.8162 38.0155 53.0573 38.4978 53.2501 39C53.2842 39.0854 53.3012 39.1766 53.3001 39.2686C53.299 39.3605 53.2798 39.4513 53.2436 39.5358C53.2073 39.6203 53.1548 39.6968 53.089 39.7611C53.0232 39.8253 52.9454 39.8759 52.8601 39.91C52.7751 39.9309 52.6872 39.9376 52.6001 39.93Z" fill="#1E1E1E"/>
<path d="M55.1099 47.66H24.3799C24.288 47.66 24.197 47.6419 24.1121 47.6067C24.0271 47.5716 23.95 47.52 23.885 47.455C23.82 47.39 23.7684 47.3128 23.7332 47.2279C23.698 47.143 23.6799 47.052 23.6799 46.96V42.26C23.6892 41.7215 23.7976 41.1892 23.9999 40.69C24.4351 39.8696 25.1422 39.2261 25.9999 38.87C26.1799 38.78 26.3599 38.69 26.5399 38.58C26.6215 38.5271 26.7131 38.4917 26.8091 38.4762C26.905 38.4606 27.0031 38.4652 27.0972 38.4897C27.1913 38.5141 27.2792 38.5579 27.3555 38.6182C27.4317 38.6786 27.4945 38.7541 27.5399 38.84C27.5861 38.9193 27.616 39.0069 27.6279 39.0978C27.6398 39.1888 27.6335 39.2811 27.6093 39.3696C27.5851 39.458 27.5435 39.5408 27.4869 39.613C27.4304 39.6852 27.36 39.7454 27.2799 39.79C27.0899 39.91 26.8899 40.01 26.6899 40.11C26.1019 40.321 25.6065 40.7315 25.2899 41.27C25.1512 41.586 25.0732 41.9252 25.0599 42.27V46.27H54.4099V42.27C54.4099 42.0844 54.4837 41.9063 54.615 41.7751C54.7462 41.6438 54.9243 41.57 55.1099 41.57C55.2956 41.57 55.4736 41.6438 55.6049 41.7751C55.7362 41.9063 55.8099 42.0844 55.8099 42.27V47C55.7974 47.1778 55.7184 47.3444 55.5888 47.4667C55.4591 47.5889 55.2882 47.658 55.1099 47.66Z" fill="#1E1E1E"/>
<path d="M32.91 43H29.52C29.3417 42.9979 29.1708 42.9289 29.0411 42.8066C28.9115 42.6843 28.8325 42.5178 28.82 42.34C28.8045 41.9965 28.7301 41.6582 28.6 41.34C28.277 40.8029 27.7792 40.3934 27.19 40.18C26.99 40.08 26.8 39.98 26.6 39.86C26.4502 39.762 26.3436 39.6103 26.3022 39.4362C26.2608 39.262 26.2877 39.0786 26.3773 38.9237C26.4669 38.7687 26.6125 38.654 26.7841 38.6031C26.9557 38.5522 27.1403 38.569 27.3 38.65C27.48 38.76 27.66 38.85 27.84 38.94C28.7005 39.2917 29.4089 39.9364 29.84 40.76C29.9641 41.0383 30.0547 41.3303 30.11 41.63H32.26C32.3152 41.3303 32.4058 41.0383 32.53 40.76C32.9651 39.9395 33.6722 39.2961 34.53 38.94C34.71 38.85 34.89 38.76 35.07 38.65C35.1515 38.597 35.2431 38.5617 35.3391 38.5461C35.435 38.5306 35.5332 38.5352 35.6273 38.5596C35.7213 38.5841 35.8093 38.6279 35.8855 38.6882C35.9617 38.7485 36.0245 38.824 36.07 38.91C36.1161 38.9892 36.1461 39.0768 36.158 39.1678C36.1699 39.2587 36.1635 39.3511 36.1393 39.4395C36.1151 39.528 36.0735 39.6107 36.017 39.6829C35.9604 39.7551 35.89 39.8153 35.81 39.86C35.62 39.98 35.42 40.08 35.22 40.18C34.6308 40.3934 34.1329 40.8029 33.81 41.34C33.6799 41.6582 33.6054 41.9965 33.59 42.34C33.5778 42.5144 33.5017 42.6782 33.3762 42.8C33.2507 42.9218 33.0847 42.993 32.91 43Z" fill="#1E1E1E"/>
<path d="M41.44 43H38.05C37.871 43.0003 37.6988 42.932 37.5686 42.8093C37.4384 42.6865 37.3602 42.5186 37.35 42.34C37.3345 41.9965 37.2601 41.6582 37.13 41.34C36.807 40.8029 36.3092 40.3934 35.72 40.18C35.52 40.08 35.32 39.98 35.13 39.86C35.0499 39.8153 34.9795 39.7551 34.923 39.6829C34.8664 39.6107 34.8248 39.528 34.8006 39.4395C34.7764 39.3511 34.7701 39.2587 34.782 39.1678C34.7939 39.0768 34.8238 38.9892 34.87 38.91C34.9154 38.824 34.9782 38.7485 35.0544 38.6882C35.1307 38.6279 35.2186 38.5841 35.3127 38.5596C35.4068 38.5352 35.5049 38.5306 35.6008 38.5461C35.6968 38.5617 35.7884 38.597 35.87 38.65C36.05 38.76 36.23 38.85 36.41 38.94C37.2677 39.2961 37.9748 39.9395 38.41 40.76C38.5341 41.0383 38.6247 41.3303 38.68 41.63H40.83C40.8852 41.3303 40.9759 41.0383 41.1 40.76C41.5311 39.9364 42.2395 39.2917 43.1 38.94C43.28 38.85 43.46 38.76 43.64 38.65C43.7996 38.569 43.9842 38.5522 44.1558 38.6031C44.3274 38.654 44.473 38.7687 44.5626 38.9237C44.6523 39.0786 44.6791 39.262 44.6377 39.4362C44.5963 39.6103 44.4898 39.762 44.34 39.86C44.14 39.98 43.95 40.08 43.75 40.18C43.1608 40.3934 42.6629 40.8029 42.34 41.34C42.2099 41.6582 42.1355 41.9965 42.12 42.34C42.1078 42.5144 42.0317 42.6782 41.9062 42.8C41.7807 42.9218 41.6147 42.993 41.44 43Z" fill="#1E1E1E"/>
<path d="M50 43H46.58C46.4011 43.0003 46.2288 42.932 46.0986 42.8093C45.9685 42.6865 45.8902 42.5186 45.88 42.34C45.8613 41.9959 45.7835 41.6576 45.65 41.34C45.41 40.79 44.89 40.52 44.25 40.18C44.05 40.08 43.85 39.98 43.66 39.86C43.5799 39.8153 43.5095 39.7551 43.453 39.6829C43.3964 39.6107 43.3548 39.528 43.3306 39.4395C43.3064 39.3511 43.3001 39.2587 43.312 39.1678C43.3239 39.0768 43.3538 38.9892 43.4 38.91C43.4454 38.824 43.5082 38.7485 43.5845 38.6882C43.6607 38.6279 43.7486 38.5841 43.8427 38.5596C43.9368 38.5352 44.0349 38.5306 44.1309 38.5461C44.2268 38.5617 44.3185 38.597 44.4 38.65C44.58 38.76 44.76 38.85 44.93 38.94C45.7877 39.2961 46.4948 39.9395 46.93 40.76C47.0541 41.0383 47.1447 41.3303 47.2 41.63H49.35C49.4053 41.3303 49.4959 41.0383 49.62 40.76C50.0511 39.9364 50.7595 39.2917 51.62 38.94C51.8 38.85 51.98 38.76 52.16 38.65C52.3196 38.569 52.5042 38.5522 52.6758 38.6031C52.8474 38.654 52.993 38.7687 53.0827 38.9237C53.1723 39.0786 53.1992 39.262 53.1578 39.4362C53.1164 39.6103 53.0098 39.762 52.86 39.86C52.66 39.98 52.46 40.08 52.27 40.18C51.6808 40.3934 51.1829 40.8029 50.86 41.34C50.7299 41.6582 50.6555 41.9965 50.64 42.34C50.6289 42.508 50.5585 42.6666 50.4412 42.7875C50.324 42.9084 50.1676 42.9837 50 43Z" fill="#1E1E1E"/>
<path d="M55.11 43C54.9311 43.0003 54.7589 42.932 54.6287 42.8093C54.4985 42.6865 54.4203 42.5186 54.41 42.34C54.3914 41.9959 54.3136 41.6576 54.18 41.34C53.94 40.79 53.42 40.52 52.78 40.18C52.58 40.08 52.38 39.98 52.19 39.86C52.1099 39.8153 52.0396 39.7551 51.983 39.6829C51.9265 39.6107 51.8849 39.528 51.8607 39.4395C51.8364 39.3511 51.8301 39.2587 51.842 39.1678C51.8539 39.0768 51.8839 38.9892 51.93 38.91C51.9755 38.824 52.0383 38.7485 52.1145 38.6882C52.1907 38.6279 52.2787 38.5841 52.3727 38.5596C52.4668 38.5352 52.5649 38.5306 52.6609 38.5461C52.7568 38.5617 52.8485 38.597 52.93 38.65C53.11 38.76 53.29 38.85 53.46 38.94C54.3178 39.2961 55.0249 39.9395 55.46 40.76C55.6683 41.2446 55.7869 41.763 55.81 42.29C55.8154 42.3819 55.8026 42.4741 55.7724 42.5611C55.7421 42.6481 55.695 42.7282 55.6336 42.797C55.5723 42.8657 55.498 42.9217 55.4151 42.9617C55.3321 43.0017 55.242 43.0249 55.15 43.03L55.11 43Z" fill="#1E1E1E"/>
</svg>
