<svg width="70" height="36" viewBox="0 0 70 36" fill="none" xmlns="http://www.w3.org/2000/svg">
<path d="M60.5 35C60.5 28.237 57.8134 21.751 53.0312 16.9688C48.249 12.1866 41.763 9.5 35 9.5C28.237 9.5 21.751 12.1866 16.9688 16.9688C12.1866 21.7509 9.5 28.237 9.5 35M52 35C52 32.7675 51.5603 30.5569 50.706 28.4944C49.8516 26.4318 48.5994 24.5578 47.0208 22.9792C45.4422 21.4006 43.5682 20.1484 41.5056 19.294C39.4431 18.4397 37.2325 18 35 18C32.7675 18 30.5569 18.4397 28.4944 19.294C26.4318 20.1484 24.5578 21.4006 22.9792 22.9792C21.4006 24.5578 20.1484 26.4318 19.294 28.4944C18.4397 30.5569 18 32.7675 18 35M43.5 35C43.5 32.7457 42.6045 30.5836 41.0104 28.9896C39.4163 27.3955 37.2543 26.5 35 26.5C32.7457 26.5 30.5837 27.3955 28.9896 28.9896C27.3955 30.5836 26.5 32.7457 26.5 35M69 35C69 30.5351 68.1206 26.1138 66.4119 21.9888C64.7032 17.8637 62.1988 14.1156 59.0416 10.9584C55.8844 7.80118 52.1363 5.29676 48.0112 3.5881C43.8862 1.87944 39.4649 1 35 1C30.5351 1 26.1138 1.87944 21.9888 3.5881C17.8637 5.29676 14.1156 7.80118 10.9584 10.9584C7.80118 14.1156 5.29675 17.8637 3.58809 21.9888C1.87944 26.1138 1 30.5351 1 35L69 35Z" stroke="black" stroke-width="2"/>
</svg>
