<svg width="32" height="32" viewBox="0 0 32 32" fill="none" xmlns="http://www.w3.org/2000/svg">
<path d="M3.33398 15.9997C3.33398 10.0286 3.33398 7.04299 5.18897 5.18799C7.04397 3.33301 10.0295 3.33301 16.0007 3.33301C21.9717 3.33301 24.9573 3.33301 26.8124 5.18799C28.6673 7.04299 28.6673 10.0286 28.6673 15.9997C28.6673 21.9707 28.6673 24.9563 26.8124 26.8114C24.9573 28.6663 21.9717 28.6663 16.0007 28.6663C10.0295 28.6663 7.04397 28.6663 5.18897 26.8114C3.33398 24.9563 3.33398 21.9707 3.33398 15.9997Z" stroke="white" stroke-linejoin="round"/>
<path d="M22.5694 10.7021H18.6428C17.2511 10.7021 16.1199 11.8249 16.1096 13.2167L15.9959 28.5694M13.4434 18.6693H19.847" stroke="white" stroke-linecap="round" stroke-linejoin="round"/>
</svg>
