<svg width="32" height="32" viewBox="0 0 32 32" fill="none" xmlns="http://www.w3.org/2000/svg">
<path d="M4 16C4 10.3431 4 7.51472 5.75736 5.75736C7.51472 4 10.3431 4 16 4C21.6568 4 24.4853 4 26.2427 5.75736C28 7.51472 28 10.3431 28 16C28 21.6568 28 24.4853 26.2427 26.2427C24.4853 28 21.6568 28 16 28C10.3431 28 7.51472 28 5.75736 26.2427C4 24.4853 4 21.6568 4 16Z" stroke="white" stroke-linecap="round" stroke-linejoin="round"/>
<path d="M21.3327 16.0003C21.3327 18.9458 18.9448 21.3337 15.9993 21.3337C13.0538 21.3337 10.666 18.9458 10.666 16.0003C10.666 13.0548 13.0538 10.667 15.9993 10.667C18.9448 10.667 21.3327 13.0548 21.3327 16.0003Z" stroke="white" stroke-linecap="round" stroke-linejoin="round"/>
<path d="M23.166 9.00033H22.9993M23.3327 9.00033C23.3327 9.18443 23.1833 9.33366 22.9993 9.33366C22.8152 9.33366 22.666 9.18443 22.666 9.00033C22.666 8.81623 22.8152 8.66699 22.9993 8.66699C23.1833 8.66699 23.3327 8.81623 23.3327 9.00033Z" stroke="white" stroke-linecap="round" stroke-linejoin="round"/>
</svg>
