<svg width="32" height="32" viewBox="0 0 32 32" fill="none" xmlns="http://www.w3.org/2000/svg">
<path d="M9.33398 13.333V22.6663" stroke="white" stroke-linecap="round" stroke-linejoin="round"/>
<path d="M14.666 17.333V22.6663M14.666 17.333C14.666 15.1238 16.4568 13.333 18.666 13.333C20.8752 13.333 22.666 15.1238 22.666 17.333V22.6663M14.666 17.333V13.333" stroke="white" stroke-linecap="round" stroke-linejoin="round"/>
<path d="M9.5 9.00033H9.33333M9.66667 9.00033C9.66667 9.18442 9.51743 9.33366 9.33333 9.33366C9.14924 9.33366 9 9.18442 9 9.00033C9 8.81623 9.14924 8.66699 9.33333 8.66699C9.51743 8.66699 9.66667 8.81623 9.66667 9.00033Z" stroke="white" stroke-linecap="round" stroke-linejoin="round"/>
<path d="M4 16C4 10.3431 4 7.51472 5.75736 5.75736C7.51472 4 10.3431 4 16 4C21.6568 4 24.4853 4 26.2427 5.75736C28 7.51472 28 10.3431 28 16C28 21.6568 28 24.4853 26.2427 26.2427C24.4853 28 21.6568 28 16 28C10.3431 28 7.51472 28 5.75736 26.2427C4 24.4853 4 21.6568 4 16Z" stroke="white" stroke-linecap="round" stroke-linejoin="round"/>
</svg>
