<svg width="146" height="36" viewBox="0 0 146 36" fill="none" xmlns="http://www.w3.org/2000/svg">
<g clip-path="url(#clip0_69_4464)">
<path d="M42.5156 25.2822H52.9647V22.1212H46.2294V10.2148H42.5156V25.2822Z" fill="black" fill-opacity="0.4"/>
<path d="M59.1558 23.1744C57.6661 23.1744 56.8898 21.8679 56.8898 19.9081C56.8898 17.9483 57.6661 16.6207 59.1558 16.6207C60.6456 16.6207 61.4429 17.9483 61.4429 19.9081C61.4429 21.8679 60.6456 23.1744 59.1558 23.1744ZM59.1768 25.6189C62.6388 25.6189 64.9049 23.1534 64.9049 19.9081C64.9049 16.6628 62.6388 14.1973 59.1768 14.1973C55.7358 14.1973 53.4277 16.6628 53.4277 19.9081C53.4277 23.1534 55.7358 25.6189 59.1768 25.6189Z" fill="black" fill-opacity="0.4"/>
<path d="M70.8972 29.0123C72.4918 29.0123 73.8976 28.654 74.8418 27.8111C75.7021 27.0314 76.2686 25.8513 76.2686 24.2287V14.4929H72.9954V15.6519H72.9534C72.324 14.7457 71.3588 14.1768 69.932 14.1768C67.2673 14.1768 65.4209 16.4105 65.4209 19.5715C65.4209 22.88 67.666 24.6923 70.0789 24.6923C71.3798 24.6923 72.1981 24.1654 72.8276 23.449H72.9115V24.5237C72.9115 25.8302 72.303 26.5889 70.8552 26.5889C69.7222 26.5889 69.1557 26.1042 68.9669 25.5352H65.6517C65.9874 27.79 67.9387 29.0123 70.8972 29.0123ZM70.8762 22.1424C69.5963 22.1424 68.757 21.0888 68.757 19.4661C68.757 17.8224 69.5963 16.7688 70.8762 16.7688C72.303 16.7688 73.0584 17.991 73.0584 19.4451C73.0584 20.9623 72.366 22.1424 70.8762 22.1424Z" fill="black" fill-opacity="0.4"/>
<path d="M82.9986 23.1744C81.5089 23.1744 80.7325 21.8679 80.7325 19.9081C80.7325 17.9483 81.5089 16.6207 82.9986 16.6207C84.4883 16.6207 85.2856 17.9483 85.2856 19.9081C85.2856 21.8679 84.4883 23.1744 82.9986 23.1744ZM83.0196 25.6189C86.4816 25.6189 88.7479 23.1534 88.7479 19.9081C88.7479 16.6628 86.4816 14.1973 83.0196 14.1973C79.5785 14.1973 77.2705 16.6628 77.2705 19.9081C77.2705 23.1534 79.5785 25.6189 83.0196 25.6189Z" fill="black" fill-opacity="0.4"/>
<path d="M89.7461 25.2822H93.1662V14.4927H89.7461V25.2822ZM89.7461 12.9965H93.1662V10.2148H89.7461V12.9965Z" fill="black" fill-opacity="0.4"/>
<path d="M94.6504 28.8437H98.0705V24.1654H98.1124C98.7839 25.0716 99.77 25.6195 101.155 25.6195C103.966 25.6195 105.834 23.3857 105.834 19.8876C105.834 16.6423 104.092 14.1768 101.239 14.1768C99.77 14.1768 98.7209 14.83 97.9865 15.7994H97.9236V14.4929H94.6504V28.8437ZM100.274 22.9643C98.8048 22.9643 97.9656 21.7631 97.9656 20.014C97.9656 18.265 98.7209 16.9373 100.211 16.9373C101.679 16.9373 102.372 18.1596 102.372 20.014C102.372 21.8474 101.574 22.9643 100.274 22.9643Z" fill="black" fill-opacity="0.4"/>
<path d="M111.402 25.6195C114.214 25.6195 116.291 24.3972 116.291 22.0371C116.291 19.2765 114.067 18.7918 112.179 18.4757C110.815 18.2228 109.598 18.1174 109.598 17.3588C109.598 16.6845 110.248 16.3684 111.088 16.3684C112.032 16.3684 112.682 16.6634 112.808 17.6328H115.955C115.788 15.5044 114.151 14.1768 111.109 14.1768C108.57 14.1768 106.471 15.3569 106.471 17.6328C106.471 20.1615 108.465 20.6673 110.332 20.9834C111.759 21.2363 113.06 21.3416 113.06 22.311C113.06 23.0064 112.409 23.3857 111.381 23.3857C110.248 23.3857 109.535 22.8589 109.409 21.7842H106.178C106.283 24.1654 108.255 25.6195 111.402 25.6195Z" fill="black" fill-opacity="0.4"/>
<path d="M120.936 25.5987C122.426 25.5987 123.37 25.0087 124.146 23.955H124.209V25.2826H127.482V14.4932H124.062V20.5201C124.062 21.8056 123.349 22.6906 122.174 22.6906C121.083 22.6906 120.558 22.0374 120.558 20.8573V14.4932H117.159V21.5737C117.159 23.9761 118.46 25.5987 120.936 25.5987Z" fill="black" fill-opacity="0.4"/>
<path d="M128.971 25.2823H132.391V19.2343C132.391 17.9489 133.02 17.0427 134.09 17.0427C135.118 17.0427 135.601 17.7171 135.601 18.8761V25.2823H139.021V19.2343C139.021 17.9489 139.63 17.0427 140.721 17.0427C141.749 17.0427 142.231 17.7171 142.231 18.8761V25.2823H145.651V18.265C145.651 15.8415 144.434 14.1768 142.001 14.1768C140.616 14.1768 139.462 14.7668 138.622 16.0733H138.58C138.035 14.9143 136.965 14.1768 135.559 14.1768C134.006 14.1768 132.978 14.9143 132.307 16.0312H132.244V14.4929H128.971V25.2823Z" fill="black" fill-opacity="0.4"/>
<path fill-rule="evenodd" clip-rule="evenodd" d="M7.5661 3.41691C6.31535 4.29528 5.18433 5.33379 4.2025 6.50284C8.2147 6.12873 13.3121 6.73961 19.23 9.71148C25.5497 12.8849 30.6385 12.9922 34.1801 12.3061C33.8587 11.3289 33.4541 10.3898 32.9749 9.49697C28.9208 9.92642 23.7233 9.35798 17.6662 6.31633C13.8198 4.3848 10.4293 3.58913 7.5661 3.41691ZM30.6067 6.11145C27.4051 2.51878 22.7524 0.257812 17.5739 0.257812C16.0531 0.257812 14.5775 0.452833 13.1709 0.819307C15.076 1.3414 17.0999 2.10521 19.23 3.17492C23.6648 5.40188 27.4935 6.11892 30.6067 6.11145ZM34.9373 15.7361C30.6587 16.5847 24.7504 16.4104 17.6662 12.8529C11.0432 9.527 5.77188 9.56888 2.21671 10.3624C2.0332 10.4033 1.85402 10.4463 1.67916 10.4911C1.2137 11.5078 0.842152 12.5769 0.575565 13.6871C0.860294 13.6107 1.15452 13.5381 1.45809 13.4703C5.77113 12.5077 11.8651 12.5495 19.23 16.248C25.8531 19.5739 31.1244 19.532 34.6796 18.7385C34.8014 18.7114 34.9215 18.6833 35.0395 18.6543C35.0524 18.3775 35.0589 18.0989 35.0589 17.8188C35.0589 17.1141 35.0176 16.4192 34.9373 15.7361ZM34.4686 22.3603C30.2315 23.1043 24.4953 22.8187 17.6662 19.3894C11.0432 16.0635 5.77188 16.1054 2.21671 16.8989C1.42756 17.075 0.717663 17.2895 0.0914287 17.5159C0.0897213 17.6166 0.0888672 17.7176 0.0888672 17.8188C0.0888672 27.5174 7.91717 35.3797 17.5739 35.3797C25.6669 35.3797 32.4757 29.8576 34.4686 22.3603Z" fill="black" fill-opacity="0.4"/>
</g>
<defs>
<clipPath id="clip0_69_4464">
<rect width="146" height="36" fill="white"/>
</clipPath>
</defs>
</svg>
