<svg width="148" height="36" viewBox="0 0 148 36" fill="none" xmlns="http://www.w3.org/2000/svg">
<g clip-path="url(#clip0_69_4476)">
<path d="M43.4111 25.4228H53.9403V22.2618H47.1534V10.3555H43.4111V25.4228Z" fill="black" fill-opacity="0.4"/>
<path d="M60.1782 23.3131C58.6771 23.3131 57.8948 22.0066 57.8948 20.0468C57.8948 18.087 58.6771 16.7594 60.1782 16.7594C61.6794 16.7594 62.4828 18.087 62.4828 20.0468C62.4828 22.0066 61.6794 23.3131 60.1782 23.3131ZM60.1994 25.7576C63.688 25.7576 65.9714 23.292 65.9714 20.0468C65.9714 16.8015 63.688 14.3359 60.1994 14.3359C56.732 14.3359 54.4062 16.8015 54.4062 20.0468C54.4062 23.292 56.732 25.7576 60.1994 25.7576Z" fill="black" fill-opacity="0.4"/>
<path d="M72.0105 29.1519C73.6173 29.1519 75.0339 28.7937 75.9853 27.9507C76.8522 27.171 77.423 25.9909 77.423 24.3683V14.6325H74.1248V15.7915H74.0825C73.4482 14.8854 72.4756 14.3164 71.0379 14.3164C68.3528 14.3164 66.4922 16.5502 66.4922 19.7111C66.4922 23.0196 68.7545 24.8319 71.1859 24.8319C72.4968 24.8319 73.3213 24.3051 73.9556 23.5886H74.0402V24.6633C74.0402 25.9699 73.427 26.7285 71.9682 26.7285C70.8265 26.7285 70.2556 26.2438 70.0653 25.6748H66.7248C67.063 27.9297 69.0293 29.1519 72.0105 29.1519ZM71.9893 22.2821C70.6996 22.2821 69.8539 21.2284 69.8539 19.6058C69.8539 17.9621 70.6996 16.9084 71.9893 16.9084C73.427 16.9084 74.1882 18.1306 74.1882 19.5847C74.1882 21.102 73.4905 22.2821 71.9893 22.2821Z" fill="black" fill-opacity="0.4"/>
<path d="M84.2046 23.3131C82.7035 23.3131 81.9212 22.0066 81.9212 20.0468C81.9212 18.087 82.7035 16.7594 84.2046 16.7594C85.7058 16.7594 86.5092 18.087 86.5092 20.0468C86.5092 22.0066 85.7058 23.3131 84.2046 23.3131ZM84.2258 25.7576C87.7143 25.7576 89.9973 23.292 89.9973 20.0468C89.9973 16.8015 87.7143 14.3359 84.2258 14.3359C80.7583 14.3359 78.4326 16.8015 78.4326 20.0468C78.4326 23.292 80.7583 25.7576 84.2258 25.7576Z" fill="black" fill-opacity="0.4"/>
<path d="M91.0039 25.4208H94.4502V14.6314H91.0039V25.4208ZM91.0039 13.1352H94.4502V10.3535H91.0039V13.1352Z" fill="black" fill-opacity="0.4"/>
<path d="M95.9453 28.9833H99.3916V24.3051H99.4339C100.11 25.2112 101.104 25.7591 102.5 25.7591C105.333 25.7591 107.214 23.5254 107.214 20.0272C107.214 16.782 105.46 14.3164 102.584 14.3164C101.104 14.3164 100.047 14.9697 99.307 15.939H99.2436V14.6325H95.9453V28.9833ZM101.612 23.1039C100.132 23.1039 99.2859 21.9027 99.2859 20.1537C99.2859 18.4046 100.047 17.077 101.548 17.077C103.028 17.077 103.726 18.2992 103.726 20.1537C103.726 21.987 102.922 23.1039 101.612 23.1039Z" fill="black" fill-opacity="0.4"/>
<path d="M112.825 25.7591C115.658 25.7591 117.751 24.5369 117.751 22.1767C117.751 19.4161 115.51 18.9314 113.607 18.6153C112.233 18.3625 111.007 18.2571 111.007 17.4985C111.007 16.8241 111.662 16.508 112.508 16.508C113.459 16.508 114.115 16.803 114.242 17.7724H117.413C117.244 15.644 115.595 14.3164 112.529 14.3164C109.971 14.3164 107.857 15.4965 107.857 17.7724C107.857 20.3012 109.865 20.8069 111.747 21.123C113.185 21.3759 114.495 21.4813 114.495 22.4506C114.495 23.1461 113.84 23.5254 112.804 23.5254C111.662 23.5254 110.943 22.9986 110.817 21.9238H107.561C107.666 24.3051 109.654 25.7591 112.825 25.7591Z" fill="black" fill-opacity="0.4"/>
<path d="M122.433 25.7384C123.934 25.7384 124.885 25.1483 125.668 24.0947H125.731V25.4223H129.029V14.6328H125.583V20.6597C125.583 21.9452 124.864 22.8303 123.68 22.8303C122.581 22.8303 122.052 22.177 122.052 20.9969V14.6328H118.627V21.7134C118.627 24.1157 119.938 25.7384 122.433 25.7384Z" fill="black" fill-opacity="0.4"/>
<path d="M130.529 25.422H133.976V19.374C133.976 18.0885 134.61 17.1824 135.688 17.1824C136.724 17.1824 137.21 17.8567 137.21 19.0157V25.422H140.657V19.374C140.657 18.0885 141.27 17.1824 142.369 17.1824C143.405 17.1824 143.892 17.8567 143.892 19.0157V25.422H147.338V18.4046C147.338 15.9812 146.112 14.3164 143.659 14.3164C142.264 14.3164 141.101 14.9065 140.255 16.213H140.213C139.663 15.054 138.585 14.3164 137.168 14.3164C135.604 14.3164 134.568 15.054 133.891 16.1708H133.828V14.6325H130.529V25.422Z" fill="black" fill-opacity="0.4"/>
<path d="M22.3846 1.73589L18.9198 0.810547L16 11.6716L13.3639 1.86617L9.89905 2.79151L12.7472 13.3856L5.65317 6.31502L3.11674 8.84309L10.898 16.5987L1.20769 14.0108L0.279297 17.4641L10.8671 20.2918C10.7459 19.7707 10.6818 19.2277 10.6818 18.6698C10.6818 14.7207 13.8937 11.5193 17.8559 11.5193C21.8181 11.5193 25.03 14.7207 25.03 18.6698C25.03 19.2241 24.9667 19.7637 24.847 20.2818L34.4693 22.8516L35.3977 19.3982L24.7678 16.5593L34.4587 13.9712L33.5302 10.5178L22.9008 13.3565L29.9947 6.28599L27.4583 3.75792L19.785 11.4059L22.3846 1.73589Z" fill="black" fill-opacity="0.4"/>
<path d="M24.8384 20.3223C24.5414 21.574 23.9142 22.6985 23.0537 23.5995L30.0247 30.5476L32.5611 28.0195L24.8384 20.3223Z" fill="black" fill-opacity="0.4"/>
<path d="M22.983 23.6719C22.1121 24.5584 21.0116 25.22 19.7773 25.561L22.314 34.9965L25.7787 34.0711L22.983 23.6719Z" fill="black" fill-opacity="0.4"/>
<path d="M19.648 25.595C19.0754 25.7417 18.4752 25.8197 17.8567 25.8197C17.1941 25.8197 16.5524 25.7301 15.9432 25.5625L13.4043 35.0066L16.8691 35.9319L19.648 25.595Z" fill="black" fill-opacity="0.4"/>
<path d="M15.8202 25.5274C14.6049 25.1695 13.5239 24.4995 12.6708 23.6104L5.68262 30.5755L8.21905 33.1035L15.8202 25.5274Z" fill="black" fill-opacity="0.4"/>
<path d="M12.6125 23.5492C11.774 22.6544 11.1633 21.5449 10.8725 20.3125L1.21875 22.8907L2.14714 26.3441L12.6125 23.5492Z" fill="black" fill-opacity="0.4"/>
</g>
<defs>
<clipPath id="clip0_69_4476">
<rect width="148" height="36" fill="white"/>
</clipPath>
</defs>
</svg>
