<svg width="198" height="60" viewBox="0 0 198 60" fill="none" xmlns="http://www.w3.org/2000/svg">
<path d="M57.2734 35.4053V35.0194H57.3118C58.2119 35.0194 58.9513 34.7558 59.5301 34.2285C60.1089 33.7012 60.3978 33.0133 60.3978 32.1637V9.70625C60.3463 8.83248 60.0443 8.1375 59.4907 7.62232C58.9371 7.10816 58.2108 6.85057 57.3108 6.85057H57.2734V6.46471H68.7335C70.8174 6.46471 72.6236 6.73442 74.1549 7.27484C75.6853 7.81527 76.8752 8.56782 77.7238 9.53251C78.5723 10.4972 78.9976 11.6356 78.9976 12.9478C78.9976 14.4398 78.3612 15.7257 77.0874 16.8065C75.8136 17.8874 74.1479 18.5561 72.0902 18.8127C73.9933 18.9157 75.659 19.2945 77.0874 19.9511C78.5147 20.6067 79.6339 21.4886 80.4441 22.5947C81.2542 23.7008 81.6593 24.9867 81.6593 26.4534C81.6593 28.203 81.1512 29.7525 80.135 31.1031C79.1188 32.4536 77.6844 33.5082 75.8328 34.2668C73.9812 35.0255 71.7942 35.4053 69.2729 35.4053H57.2734ZM66.3415 18.544H68.7335C70.0457 18.544 71.1063 18.0227 71.9165 16.9813C72.7266 15.9398 73.1317 14.5448 73.1317 12.7943C73.1317 11.0194 72.7266 9.60524 71.9165 8.54964C71.1063 7.49505 70.0447 6.96775 68.7335 6.96775H66.3415V18.544ZM69.2739 34.9042C71.177 34.9042 72.6892 34.184 73.8074 32.7436C74.9267 31.3031 75.4863 29.3616 75.4863 26.917C75.4863 24.5765 74.8752 22.6916 73.6539 21.2643C72.4316 19.837 70.7922 19.1228 68.7345 19.1228H66.3415V32.1647C66.3415 33.9911 67.3183 34.9042 69.2739 34.9042Z" fill="black"/>
<path d="M81.8138 35.0194C82.7401 35.0194 83.4927 34.7436 84.0715 34.1901C84.6503 33.6375 84.9392 32.885 84.9392 31.9324V9.93859C84.9392 9.01229 84.6493 8.2668 84.0715 7.70011C83.4927 7.13443 82.7401 6.85159 81.8138 6.85159V6.46572H85.7493C87.0615 6.46572 88.0646 6.3243 88.7586 6.04146C89.401 5.75862 89.8515 5.41113 90.1091 5H90.495V31.9334C90.495 32.885 90.7839 33.6375 91.3627 34.1911C91.9415 34.7446 92.6941 35.0204 93.6204 35.0204V35.4063H81.8138V35.0194Z" fill="black"/>
<path d="M93.2355 35.0194H93.2739C94.2002 35.0194 94.9457 34.7366 95.5124 34.1709C96.078 33.6052 96.3609 32.8587 96.3609 31.9324V19.2763C96.3609 18.2995 96.1609 17.5399 95.7629 16.9995C95.3639 16.4591 94.5214 16.1893 93.2355 16.1893V15.8035H97.171C98.4832 15.8035 99.4863 15.662 100.18 15.3792C100.823 15.0964 101.273 14.7489 101.531 14.3378H101.917V31.9334C101.917 32.8597 102.2 33.6062 102.765 34.1719C103.331 34.7376 104.077 35.0204 105.004 35.0204H105.042V35.4063H93.2355V35.0194ZM99.1004 11.9063C98.1741 11.9063 97.4084 11.6043 96.8043 10.9992C96.1993 10.3952 95.8972 9.62948 95.8972 8.70318C95.8972 7.77688 96.1993 7.01221 96.8043 6.40713C97.4084 5.80307 98.1741 5.50002 99.1004 5.50002C100 5.50002 100.753 5.80912 101.358 6.42632C101.962 7.04352 102.265 7.80315 102.265 8.70318C102.265 9.60423 101.962 10.3628 101.358 10.98C100.753 11.5982 100 11.9063 99.1004 11.9063Z" fill="black"/>
<path d="M112.297 35.9457C111.627 35.9457 111.126 35.9194 110.792 35.8689C110.457 35.8174 110.142 35.7528 109.846 35.676C109.55 35.5992 109.157 35.5346 108.669 35.4831C108.181 35.4315 107.435 35.4063 106.431 35.4063L105.505 28.1525H106.007C106.418 30.5707 107.19 32.391 108.322 33.6123C109.453 34.8345 110.689 35.4447 112.026 35.4447C113.338 35.4447 114.334 35.175 115.016 34.6345C115.697 34.0941 116.038 33.3607 116.038 32.4355C116.038 31.8435 115.89 31.3233 115.595 30.8728C115.299 30.4233 114.791 29.9596 114.071 29.4838C113.35 29.008 112.373 28.4363 111.138 27.7666L110.019 27.1494C108.604 26.3524 107.555 25.42 106.874 24.3523C106.193 23.2856 105.852 22.134 105.852 20.8986C105.852 19.1501 106.489 17.7732 107.762 16.7702C109.036 15.7671 110.739 15.2651 112.875 15.2651C113.415 15.2651 113.851 15.2913 114.187 15.3418C114.521 15.3934 114.842 15.458 115.152 15.5348C115.461 15.6115 115.847 15.6762 116.309 15.7277C116.772 15.7792 117.39 15.8045 118.161 15.8045L118.701 22.0168H118.239C118.084 20.8077 117.743 19.7339 117.216 18.7945C116.689 17.8561 116.065 17.1227 115.344 16.5954C114.624 16.0681 113.891 15.8045 113.145 15.8045C112.168 15.8045 111.39 16.0621 110.811 16.5762C110.232 17.0914 109.943 17.8106 109.943 18.7369C109.943 19.4319 110.169 20.0683 110.618 20.6471C111.068 21.2259 111.936 21.8502 113.222 22.5189L114.38 23.0977C116.18 24.024 117.492 24.9887 118.315 25.9918C119.139 26.9948 119.55 28.2818 119.55 29.8505C119.551 33.8618 117.132 35.8942 112.297 35.9457Z" fill="black"/>
<path d="M128.348 35.9457C127.678 35.9457 127.177 35.9194 126.843 35.8689C126.509 35.8174 126.192 35.7528 125.897 35.676C125.601 35.5992 125.209 35.5346 124.721 35.4831C124.232 35.4315 123.486 35.4063 122.482 35.4063L121.556 28.1525H122.058C122.469 30.5707 123.241 32.391 124.373 33.6123C125.505 34.8345 126.74 35.4447 128.077 35.4447C129.39 35.4447 130.386 35.175 131.067 34.6345C131.748 34.0941 132.09 33.3607 132.09 32.4355C132.09 31.8435 131.941 31.3233 131.646 30.8728C131.35 30.4233 130.842 29.9596 130.122 29.4838C129.402 29.008 128.424 28.4363 127.189 27.7666L126.07 27.1494C124.655 26.3524 123.606 25.42 122.926 24.3523C122.244 23.2856 121.903 22.134 121.903 20.8986C121.903 19.1501 122.54 17.7732 123.814 16.7702C125.087 15.7671 126.79 15.2651 128.926 15.2651C129.466 15.2651 129.903 15.2913 130.238 15.3418C130.572 15.3934 130.894 15.458 131.203 15.5348C131.512 15.6115 131.898 15.6762 132.36 15.7277C132.823 15.7792 133.441 15.8045 134.212 15.8045L134.752 22.0168H134.29C134.135 20.8077 133.794 19.7339 133.267 18.7945C132.74 17.8561 132.116 17.1227 131.396 16.5954C130.675 16.0681 129.942 15.8045 129.197 15.8045C128.219 15.8045 127.441 16.0621 126.862 16.5762C126.283 17.0914 125.993 17.8106 125.993 18.7369C125.993 19.4319 126.219 20.0683 126.669 20.6471C127.119 21.2259 127.987 21.8502 129.273 22.5189L130.431 23.0977C132.231 24.024 133.543 24.9887 134.366 25.9918C135.19 26.9948 135.601 28.2818 135.601 29.8505C135.602 33.8618 133.184 35.8942 128.348 35.9457Z" fill="black"/>
<path d="M148.026 35.9457C145.916 35.9457 144.071 35.5214 142.489 34.6719C140.907 33.8234 139.678 32.6264 138.804 31.0839C137.929 29.5404 137.492 27.7141 137.492 25.6049C137.492 23.4957 137.929 21.6694 138.804 20.1259C139.678 18.5824 140.907 17.3864 142.489 16.5368C144.071 15.6883 145.916 15.263 148.026 15.263C150.135 15.263 151.974 15.6873 153.543 16.5368C155.112 17.3853 156.334 18.5824 157.209 20.1259C158.083 21.6694 158.521 23.4957 158.521 25.6049C158.521 27.7141 158.084 29.5404 157.209 31.0839C156.334 32.6274 155.112 33.8234 153.543 34.6719C151.974 35.5214 150.135 35.9457 148.026 35.9457ZM147.987 35.4447C148.887 35.4447 149.659 34.9952 150.302 34.0941C150.945 33.1941 151.447 31.991 151.808 30.4859C152.167 28.9808 152.348 27.3413 152.348 25.5665C152.348 23.6371 152.161 21.933 151.788 20.4542C151.416 18.9753 150.9 17.8177 150.245 16.9813C149.589 16.1459 148.849 15.7267 148.027 15.7267C147.152 15.7267 146.387 16.1772 145.731 17.0773C145.075 17.9783 144.566 19.1743 144.206 20.6653C143.846 22.1573 143.666 23.7907 143.666 25.5655C143.666 27.5211 143.859 29.2444 144.245 30.7364C144.631 32.2284 145.152 33.386 145.807 34.2093C146.463 35.0335 147.19 35.4447 147.987 35.4447Z" fill="black"/>
<path d="M159.101 35.4053V35.0194H159.139C160.065 35.0194 160.811 34.7366 161.378 34.1709C161.943 33.6052 162.226 32.8587 162.226 31.9324V19.2763C162.226 18.2995 162.026 17.5399 161.628 16.9995C161.229 16.4591 160.387 16.1893 159.101 16.1893V15.8035H162.921C164.285 15.8035 165.313 15.6681 166.008 15.3984C166.703 15.1287 167.191 14.7752 167.474 14.3378H167.667L167.705 20.6663C168.04 19.8945 168.47 19.0844 168.998 18.2349C169.525 17.3864 170.194 16.6722 171.004 16.0934C171.814 15.5146 172.785 15.2257 173.918 15.2257C174.303 15.2257 174.715 15.2641 175.152 15.3418C175.589 15.4186 176.052 15.561 176.541 15.7661L175.036 20.2804C174.11 19.7663 173.305 19.4066 172.625 19.1996C171.943 18.9935 171.345 18.8905 170.831 18.8905C169.956 18.8905 169.306 19.1602 168.882 19.7006C168.458 20.241 168.091 20.8845 167.782 21.63V31.9324C167.782 32.8587 168.065 33.6052 168.63 34.1709C169.196 34.7366 169.943 35.0194 170.869 35.0194H170.907V35.4053H159.101Z" fill="black"/>
<path d="M182.02 35.9457C180.45 35.9457 179.19 35.5214 178.239 34.6719C177.287 33.8234 176.812 32.7042 176.812 31.3152C176.812 30.7233 176.914 30.1647 177.121 29.6364C177.327 29.1091 177.713 28.5888 178.278 28.0737C178.869 27.5595 179.68 27.0261 180.709 26.4726C181.737 25.92 183.101 25.3342 184.799 24.717L188.387 23.4048V20.5107C188.387 19.044 188.156 17.8813 187.692 17.0187C187.229 16.157 186.586 15.7257 185.762 15.7257C184.785 15.752 183.955 16.3944 183.274 17.6551C182.592 18.9157 182.135 20.6643 181.904 22.9027L177.737 20.5107C178.174 19.4561 178.843 18.5298 179.743 17.7328C180.643 16.9358 181.679 16.3186 182.849 15.8812C184.019 15.4439 185.247 15.2257 186.534 15.2257C188.72 15.2257 190.502 15.8368 191.879 17.0581C193.255 18.2803 193.944 19.9461 193.944 22.0552V31.3546C193.944 32.8466 194.446 33.5931 195.449 33.5931C196.04 33.5931 196.618 33.2719 197.185 32.6284L197.494 32.8981C196.826 33.7992 196.014 34.5315 195.063 35.0972C194.111 35.6629 193.185 35.9457 192.285 35.9457C191.307 35.9457 190.465 35.6113 189.758 34.9426C189.05 34.2739 188.606 33.387 188.426 32.2799C187.166 33.5668 186.066 34.4982 185.127 35.077C184.187 35.6568 183.151 35.9457 182.02 35.9457ZM184.914 33.5537C185.48 33.5537 186.026 33.4123 186.553 33.1294C187.081 32.8466 187.679 32.3839 188.347 31.7405L188.386 23.9078L186.842 24.4867C185.53 24.9756 184.527 25.4705 183.833 25.9726C183.139 26.4746 182.656 27.0332 182.387 27.6514C182.117 28.2686 181.982 28.9767 181.982 29.7737C181.982 30.8798 182.257 31.787 182.811 32.4941C183.363 33.2001 184.065 33.5537 184.914 33.5537Z" fill="black"/>
<path d="M85.9253 47.2239C85.3717 47.0451 84.898 46.9562 84.505 46.9562C84.1303 46.9562 83.8323 47.0249 83.6131 47.1623C83.3939 47.2997 83.2838 47.5007 83.2838 47.7664C83.2838 48.1048 83.4414 48.3634 83.7575 48.5422C84.0727 48.721 84.5606 48.9058 85.2192 49.0977C85.8778 49.2897 86.4203 49.4816 86.8455 49.6745C87.2708 49.8665 87.6345 50.1543 87.9365 50.5392C88.2385 50.9231 88.389 51.4312 88.389 52.0625C88.389 52.6757 88.2264 53.204 87.9021 53.6474C87.5769 54.0909 87.1314 54.4272 86.5637 54.6566C85.996 54.8848 85.3515 55 84.6283 55C83.8505 55 83.0868 54.8626 82.3363 54.5879C81.5857 54.3131 80.9362 53.9383 80.3877 53.4626L81.2524 51.6928C81.7372 52.1322 82.2959 52.4837 82.9262 52.7494C83.5575 53.0151 84.1343 53.1474 84.6555 53.1474C85.104 53.1474 85.4536 53.0646 85.7051 52.8999C85.9566 52.7353 86.0829 52.4979 86.0829 52.1868C86.0829 51.9393 85.998 51.7362 85.8293 51.5756C85.6596 51.416 85.4455 51.2857 85.1849 51.1847C84.9242 51.0837 84.5646 50.9695 84.108 50.8413C83.4494 50.6584 82.912 50.4756 82.4959 50.2927C82.0797 50.1099 81.7201 49.8311 81.419 49.4553C81.117 49.0806 80.9665 48.5816 80.9665 47.9593C80.9665 47.3825 81.1221 46.8775 81.4332 46.4431C81.7443 46.0087 82.1787 45.6744 82.7373 45.441C83.2949 45.2077 83.9444 45.0915 84.6858 45.0915C85.3445 45.0915 85.994 45.1875 86.6344 45.3794C87.2748 45.5713 87.8415 45.8279 88.3355 46.1481L87.4981 47.9462C87.0031 47.6421 86.4789 47.4017 85.9253 47.2239Z" fill="black"/>
<path d="M101.591 45.2683H109.618V47.1068H106.682V54.8737H104.514V47.1068H101.591V45.2683Z" fill="black"/>
<path d="M130.161 54.8747L129.407 53.008H124.96L124.206 54.8747H121.969L126.141 45.2683H128.378L132.481 54.8747H130.161ZM125.674 51.2655H128.707L127.198 47.533L125.674 51.2655Z" fill="black"/>
<path d="M153.655 45.2683L150.156 51.7726V54.8737H147.988V51.8271L144.434 45.2673H146.616L149.072 49.5766L151.473 45.2673H153.655V45.2683Z" fill="black"/>
<path d="M171.968 47.2239C171.415 47.0451 170.941 46.9562 170.548 46.9562C170.173 46.9562 169.875 47.0249 169.656 47.1623C169.437 47.2997 169.327 47.5007 169.327 47.7664C169.327 48.1048 169.484 48.3634 169.8 48.5422C170.116 48.721 170.603 48.9058 171.262 49.0977C171.921 49.2897 172.463 49.4816 172.888 49.6745C173.314 49.8665 173.677 50.1543 173.979 50.5392C174.281 50.9231 174.432 51.4312 174.432 52.0625C174.432 52.6757 174.269 53.204 173.945 53.6474C173.62 54.0909 173.174 54.4272 172.607 54.6566C172.039 54.8848 171.394 55 170.671 55C169.893 55 169.13 54.8626 168.379 54.5879C167.629 54.3131 166.979 53.9383 166.431 53.4626L167.295 51.6928C167.78 52.1322 168.339 52.4837 168.969 52.7494C169.6 53.0151 170.177 53.1474 170.698 53.1474C171.147 53.1474 171.496 53.0646 171.748 52.8999C172 52.7353 172.126 52.4979 172.126 52.1868C172.126 51.9393 172.041 51.7362 171.872 51.5756C171.703 51.416 171.488 51.2857 171.228 51.1847C170.967 51.0837 170.608 50.9695 170.151 50.8413C169.492 50.6584 168.955 50.4756 168.539 50.2927C168.123 50.1099 167.763 49.8311 167.462 49.4553C167.16 49.0806 167.009 48.5816 167.009 47.9593C167.009 47.3825 167.165 46.8775 167.476 46.4431C167.787 46.0087 168.222 45.6744 168.78 45.441C169.338 45.2077 169.987 45.0915 170.729 45.0915C171.387 45.0915 172.037 45.1875 172.677 45.3794C173.318 45.5713 173.884 45.8279 174.378 46.1481L173.541 47.9462C173.045 47.6421 172.522 47.4017 171.968 47.2239Z" fill="black"/>
<path d="M46.7425 35.8985C44.4329 30.8394 39.7193 27.101 34.0715 26.1497C38.2712 24.0019 41.2352 19.7714 41.5895 14.8282C41.6114 14.4979 41.6244 14.1655 41.6244 13.8284C41.6244 13.6337 41.6203 13.4412 41.6114 13.2486C41.5811 12.4941 41.4888 11.7526 41.34 11.033C41.2372 10.5299 41.1063 10.0357 40.9466 9.55201C39.8132 6.06779 37.3283 3.18679 34.1133 1.53104C33.1051 1.00817 32.0223 0.607926 30.8895 0.348058C30.3953 0.236387 29.8922 0.14872 29.3803 0.0923631C28.859 0.0307877 28.3299 0 27.794 0C27.5774 0 27.363 0.0041746 27.149 0.0151329C27.1469 0.0109583 27.149 0.0041746 27.1511 0H0V60H31.2281C33.7433 60 36.1343 59.451 38.2863 58.469C42.02 56.7652 45.0367 53.7485 46.7425 50.0149C47.7246 47.865 48.2735 45.4739 48.2735 42.9567C48.2741 40.4389 47.7246 38.0484 46.7425 35.8985ZM30.7381 1.88744C34.8042 2.88935 38.0812 5.91854 39.4286 9.83849C39.1922 9.86041 38.9537 9.87137 38.7132 9.87137C34.3142 9.87137 30.7381 6.29269 30.7381 1.89631V1.88744ZM27.0024 1.55713C26.9998 1.54826 26.9998 1.53938 27.0024 1.53104H27.794C28.273 1.53104 28.7453 1.55974 29.2113 1.61192C29.2092 1.70585 29.2071 1.8003 29.2071 1.89631C29.2071 7.137 33.4699 11.4024 38.7132 11.4024C39.0936 11.4024 39.4677 11.3805 39.8372 11.3367C39.9859 12.0474 40.0715 12.78 40.0887 13.5304C39.6384 13.5852 39.1786 13.6113 38.7132 13.6113C32.2519 13.6113 26.9956 8.35495 26.9956 1.89579C26.9956 1.78256 26.9977 1.6688 27.0024 1.55713ZM1.53104 1.53104H25.4693C25.4672 1.60305 25.4672 1.67767 25.4672 1.75229C25.4651 1.8003 25.4651 1.84831 25.4651 1.89683C25.4651 9.2003 31.4081 15.1434 38.7137 15.1434C39.1578 15.1434 39.5971 15.1215 40.0303 15.0776C39.4662 20.6465 35.1721 25.1306 29.6908 25.9812C29.3845 26.0292 29.074 26.0662 28.7614 26.0907C28.7547 26.0907 28.7463 26.0907 28.7395 26.0928C27.2737 26.3073 25.8695 26.7096 24.5508 27.2737C23.8224 27.5842 23.1226 27.9453 22.451 28.3523V16.6634L23.6585 17.5626L24.5728 16.3331L22.451 14.7541L20.92 13.6144L16.9108 10.6285L15.7163 11.5188L14.0037 12.7941L12.9016 13.6144L11.3706 14.7541L9.25144 16.3331L10.1657 17.5626L11.3706 16.6655V23.4221C8.4901 22.451 5.17651 21.7622 1.53208 21.7314V1.53104H1.53104ZM16.9097 16.4182C16.5226 16.4182 16.1552 16.51 15.8296 16.6739C15.2676 16.9562 14.8298 17.4524 14.6262 18.0541C14.5433 18.2988 14.4974 18.5592 14.4974 18.8306V24.6463C13.9854 24.4167 13.4521 24.1939 12.9006 23.9794V15.5233L13.9943 14.7097L15.5013 13.5878L16.9097 12.5379L20.9189 15.5238V28.3482C20.4509 28.009 19.9191 27.6437 19.3248 27.2633V18.8306C19.3248 17.5005 18.242 16.4182 16.9097 16.4182ZM17.7937 18.8306V25.9107H17.0459C16.7177 25.7312 16.3785 25.5543 16.0289 25.3769V18.8306C16.0289 18.5832 16.1317 18.3578 16.2982 18.1961C16.4558 18.0432 16.6723 17.9487 16.9108 17.9487C17.3977 17.9492 17.7937 18.3448 17.7937 18.8306ZM1.53104 23.2666C5.17964 23.3063 8.50419 24.0541 11.3695 25.0779C11.8971 25.2663 12.4064 25.4651 12.9006 25.6707C13.4542 25.8982 13.9875 26.1341 14.4974 26.3751C15.2368 26.7248 15.9303 27.0838 16.5753 27.4423C18.1303 28.3043 19.4036 29.1596 20.346 29.8505C19.5324 30.5242 18.7821 31.2766 18.1063 32.0923C15.0202 29.9288 9.3485 26.8537 1.53104 26.324V23.2666ZM1.53104 27.8597C8.84076 28.3936 14.237 31.3069 17.1701 33.3321C17.0366 33.5226 16.9097 33.7172 16.785 33.9139C16.4239 34.489 16.0962 35.0865 15.805 35.7054C15.4246 35.4669 15.0176 35.2216 14.5845 34.9769C11.5005 33.2272 7.09056 31.405 1.53051 30.8581V27.8597H1.53104ZM1.53104 32.3986C6.18363 32.8927 10.007 34.334 12.8505 35.8129C13.4386 36.1192 13.9834 36.4255 14.4843 36.7271C14.7337 36.8737 14.9696 37.0225 15.1976 37.167C14.8715 38.0661 14.62 39.0002 14.4493 39.9624C13.5372 39.4025 12.4873 38.8228 11.2975 38.2649H11.2954C10.7068 37.9894 10.0879 37.7207 9.43408 37.4624C7.17666 36.57 4.53466 35.8129 1.53104 35.4236V32.3986ZM1.53104 36.9745C3.71853 37.2808 5.70877 37.7906 7.48506 38.4027L1.53104 41.2769V36.9745ZM1.53104 42.976L9.4513 39.1546C10.9583 39.7892 12.2707 40.478 13.3775 41.1386L1.53104 46.8568V42.976ZM1.53104 48.5564L14.1936 42.4474C14.1869 42.6159 14.1848 42.786 14.1848 42.9572C14.1848 44.0593 14.2897 45.1379 14.4932 46.181L1.53104 52.4367V48.5564ZM1.53104 54.1362L14.8585 47.7053C15.1867 48.8402 15.6308 49.9256 16.1771 50.9489L1.53104 58.016V54.1362ZM4.11616 58.469L16.9625 52.2702C17.621 53.2763 18.3818 54.2103 19.235 55.0547L12.157 58.469H4.11616ZM15.6809 58.469L20.4665 56.1594C21.5905 57.0804 22.8356 57.8589 24.1699 58.469H15.6809ZM31.2281 58.469C27.7747 58.469 24.5811 57.3361 22.0017 55.4199C21.5493 55.0849 21.1162 54.7243 20.705 54.3439C19.8189 53.5236 19.0294 52.6047 18.3536 51.6012C18.0672 51.177 17.8026 50.7371 17.5594 50.282C17.0084 49.2603 16.5685 48.1713 16.2601 47.0295C16.1202 46.5265 16.0086 46.0125 15.9235 45.4896C15.7857 44.6651 15.7158 43.8187 15.7158 42.9567C15.7158 42.8669 15.7158 42.7751 15.7179 42.6853V42.6832C15.7247 42.3487 15.7398 42.0184 15.768 41.6881C15.7899 41.4147 15.8181 41.1454 15.8557 40.8767C15.9016 40.5354 15.9585 40.1962 16.0263 39.8622C16.151 39.2454 16.3149 38.6417 16.51 38.0531C16.6807 37.5432 16.8774 37.047 17.096 36.5633C17.3236 36.0602 17.5798 35.5723 17.8595 35.0995V35.0975C18.0301 34.8021 18.2138 34.5177 18.4063 34.2359C18.6949 33.8091 19.008 33.4005 19.3383 33.0065C19.4959 32.8166 19.6598 32.6282 19.8304 32.4466L19.8325 32.4445C20.3752 31.8538 20.9612 31.3095 21.589 30.8107C22.0022 30.4824 22.4333 30.174 22.8794 29.8875C24.6797 28.7322 26.7357 27.9385 28.9404 27.6103C29.2467 27.5644 29.5572 27.5273 29.8703 27.5033C30.3186 27.4616 30.7715 27.4418 31.2286 27.4418C39.7834 27.4418 46.743 34.4019 46.743 42.9567C46.7425 51.5115 39.7829 58.469 31.2281 58.469Z" fill="black"/>
<path d="M31.2281 30.2111C25.8689 30.2111 21.269 33.5382 19.3905 38.2362V38.2383C19.3774 38.2733 19.3644 38.3061 19.3513 38.339V38.3411C19.2136 38.6907 19.093 39.0476 18.9881 39.4103V39.4124C18.9073 39.6838 18.8394 39.9567 18.7805 40.2327C18.5858 41.1099 18.4851 42.0194 18.4851 42.9535V42.9561C18.4851 43.072 18.4872 43.1878 18.4893 43.3016C18.4982 43.6121 18.518 43.9184 18.5482 44.2226V44.2247C18.601 44.7606 18.6881 45.2876 18.8066 45.8016C19.0711 46.9611 19.4954 48.0632 20.0532 49.0782C20.3026 49.5311 20.5781 49.9663 20.8756 50.3817C23.192 53.5993 26.9695 55.6991 31.2281 55.6991C38.256 55.6991 43.9737 49.9835 43.9737 42.9556C43.9737 35.9287 38.256 30.2111 31.2281 30.2111ZM31.2281 54.1686C27.5774 54.1686 24.329 52.4142 22.2798 49.7044C21.9693 49.2953 21.687 48.8621 21.4355 48.4113C20.8693 47.3984 20.4555 46.2921 20.2259 45.117V45.1149C20.1231 44.59 20.0553 44.0566 20.0313 43.5072C20.0203 43.3256 20.0161 43.1419 20.0161 42.9561C20.0161 41.6938 20.2259 40.4821 20.611 39.3493C20.8756 38.5749 21.221 37.8401 21.6369 37.1529C23.6053 33.9113 27.1683 31.7416 31.2281 31.7416C37.4117 31.7416 42.4426 36.7725 42.4426 42.9561C42.4426 49.1403 37.4117 54.1686 31.2281 54.1686Z" fill="black"/>
<path d="M31.2282 34.7082C26.788 34.7082 23.1545 38.2341 22.9865 42.6347C22.9823 42.7422 22.9802 42.8492 22.9802 42.9561C22.9802 43.2296 22.9933 43.5009 23.0214 43.7676C23.4285 47.9364 26.9544 51.2046 31.2282 51.2046C35.778 51.2046 39.4788 47.5033 39.4788 42.9561C39.4788 38.4069 35.778 34.7082 31.2282 34.7082ZM31.2282 49.6736C27.5248 49.6736 24.5107 46.6595 24.5107 42.9561C24.5107 39.2512 27.5248 36.2387 31.2282 36.2387C34.9332 36.2387 37.9477 39.2506 37.9477 42.9561C37.9477 46.6595 34.9332 49.6736 31.2282 49.6736Z" fill="black"/>
<path d="M31.2279 39.258C29.1896 39.258 27.5312 40.9179 27.5312 42.9567C27.5312 44.9949 29.1891 46.6533 31.2279 46.6533C33.2687 46.6533 34.9266 44.9949 34.9266 42.9567C34.9266 40.9179 33.2687 39.258 31.2279 39.258ZM31.2279 45.1222C30.0334 45.1222 29.0623 44.1511 29.0623 42.9567C29.0623 41.7622 30.0334 40.789 31.2279 40.789C32.4244 40.789 33.3955 41.7622 33.3955 42.9567C33.3955 44.1506 32.4244 45.1222 31.2279 45.1222Z" fill="black"/>
</svg>
