<svg width="143" height="36" viewBox="0 0 143 36" fill="none" xmlns="http://www.w3.org/2000/svg">
<g clip-path="url(#clip0_69_4505)">
<path d="M41.9268 23.984H52.1459V20.8982H45.5589V9.27539H41.9268V23.984Z" fill="black" fill-opacity="0.4"/>
<path d="M58.1999 21.9265C56.7429 21.9265 55.9837 20.6511 55.9837 18.7379C55.9837 16.8248 56.7429 15.5288 58.1999 15.5288C59.6568 15.5288 60.4366 16.8248 60.4366 18.7379C60.4366 20.6511 59.6568 21.9265 58.1999 21.9265ZM58.2204 24.3128C61.6062 24.3128 63.8224 21.9059 63.8224 18.7379C63.8224 15.5699 61.6062 13.1631 58.2204 13.1631C54.855 13.1631 52.5978 15.5699 52.5978 18.7379C52.5978 21.9059 54.855 24.3128 58.2204 24.3128Z" fill="black" fill-opacity="0.4"/>
<path d="M69.6835 27.6248C71.243 27.6248 72.6179 27.275 73.5413 26.4522C74.3826 25.691 74.9367 24.539 74.9367 22.955V13.451H71.7355V14.5825H71.6945C71.0788 13.6979 70.1349 13.1425 68.7395 13.1425C66.1334 13.1425 64.3277 15.323 64.3277 18.4088C64.3277 21.6385 66.5233 23.4076 68.8832 23.4076C70.1554 23.4076 70.9557 22.8933 71.5713 22.1939H71.6534V23.243C71.6534 24.5185 71.0583 25.259 69.6424 25.259C68.5343 25.259 67.9803 24.7859 67.7956 24.2305H64.5534C64.8817 26.4316 66.7901 27.6248 69.6835 27.6248ZM69.6629 20.9185C68.4112 20.9185 67.5904 19.8899 67.5904 18.3059C67.5904 16.7013 68.4112 15.6728 69.6629 15.6728C71.0583 15.6728 71.7971 16.8659 71.7971 18.2853C71.7971 19.7665 71.1199 20.9185 69.6629 20.9185Z" fill="black" fill-opacity="0.4"/>
<path d="M81.5188 21.9265C80.0619 21.9265 79.3026 20.651 79.3026 18.7379C79.3026 16.8248 80.0619 15.5288 81.5188 15.5288C82.9758 15.5288 83.7555 16.8248 83.7555 18.7379C83.7555 20.651 82.9758 21.9265 81.5188 21.9265ZM81.5394 24.3128C84.9252 24.3128 87.1414 21.9059 87.1414 18.7379C87.1414 15.5699 84.9252 13.163 81.5394 13.163C78.174 13.163 75.9168 15.5699 75.9168 18.7379C75.9168 21.9059 78.174 24.3128 81.5394 24.3128Z" fill="black" fill-opacity="0.4"/>
<path d="M88.1175 23.984H91.4623V13.4514H88.1175V23.984ZM88.1175 11.9908H91.4623V9.27539H88.1175V11.9908Z" fill="black" fill-opacity="0.4"/>
<path d="M92.9145 27.4602H96.2593V22.8933H96.3003C96.957 23.7779 97.9214 24.3128 99.2758 24.3128C102.025 24.3128 103.852 22.1322 103.852 18.7173C103.852 15.5493 102.149 13.1425 99.3578 13.1425C97.9214 13.1425 96.8954 13.7802 96.1772 14.7265H96.1156V13.451H92.9145V27.4602ZM98.4139 21.7208C96.9775 21.7208 96.1567 20.5482 96.1567 18.8408C96.1567 17.1333 96.8954 15.8373 98.3523 15.8373C99.7888 15.8373 100.466 17.0305 100.466 18.8408C100.466 20.6305 99.6862 21.7208 98.4139 21.7208Z" fill="black" fill-opacity="0.4"/>
<path d="M109.298 24.3129C112.047 24.3129 114.079 23.1197 114.079 20.8157C114.079 18.1209 111.904 17.6477 110.057 17.3392C108.723 17.0923 107.533 16.9894 107.533 16.2489C107.533 15.5906 108.169 15.282 108.99 15.282C109.913 15.282 110.549 15.57 110.672 16.5163H113.751C113.586 14.4386 111.986 13.1426 109.01 13.1426C106.527 13.1426 104.475 14.2946 104.475 16.5163C104.475 18.9849 106.425 19.4786 108.251 19.7871C109.646 20.034 110.919 20.1369 110.919 21.0832C110.919 21.762 110.283 22.1323 109.277 22.1323C108.169 22.1323 107.471 21.618 107.348 20.5689H104.188C104.291 22.8934 106.22 24.3129 109.298 24.3129Z" fill="black" fill-opacity="0.4"/>
<path d="M118.622 24.2928C120.079 24.2928 121.003 23.7168 121.762 22.6882H121.823V23.9842H125.025V13.4517H121.68V19.3351C121.68 20.5899 120.982 21.4539 119.833 21.4539C118.766 21.4539 118.253 20.8162 118.253 19.6642V13.4517H114.929V20.3637C114.929 22.7088 116.201 24.2928 118.622 24.2928Z" fill="black" fill-opacity="0.4"/>
<path d="M126.479 23.9837H129.824V18.0797C129.824 16.8249 130.44 15.9403 131.486 15.9403C132.492 15.9403 132.964 16.5986 132.964 17.73V23.9837H136.308V18.0797C136.308 16.8249 136.903 15.9403 137.971 15.9403C138.976 15.9403 139.448 16.5986 139.448 17.73V23.9837H142.793V17.1334C142.793 14.7677 141.603 13.1426 139.222 13.1426C137.868 13.1426 136.739 13.7186 135.918 14.994H135.877C135.344 13.8626 134.297 13.1426 132.923 13.1426C131.404 13.1426 130.399 13.8626 129.742 14.9529H129.68V13.4512H126.479V23.9837Z" fill="black" fill-opacity="0.4"/>
<path d="M17.5937 35.25C27.1043 35.25 34.8138 27.5272 34.8138 18V5.925C34.8138 4.5525 34.2696 3.23623 33.3008 2.26572C32.332 1.29522 31.0179 0.75 29.6478 0.75H18.4547V8.31758C18.4547 10.0443 18.5597 11.8331 19.4638 13.3028C20.111 14.3561 20.9768 15.2576 22.0024 15.9462C23.0282 16.6347 24.1897 17.0943 25.4082 17.2936L25.7379 17.3471C25.8739 17.3937 25.9919 17.4816 26.0755 17.5987C26.159 17.7157 26.204 17.856 26.204 18C26.204 18.144 26.159 18.2843 26.0755 18.4013C25.9919 18.5184 25.8739 18.6063 25.7379 18.6529L25.4082 18.7064C23.6278 18.9977 21.9837 19.842 20.7081 21.1197C19.4324 22.3976 18.5897 24.0446 18.2988 25.8281L18.2454 26.1584C18.199 26.2946 18.1112 26.4128 17.9943 26.4965C17.8774 26.5802 17.7374 26.6253 17.5937 26.6253C17.45 26.6253 17.31 26.5802 17.193 26.4965C17.0762 26.4128 16.9884 26.2946 16.9419 26.1584L16.8885 25.8281C16.6895 24.6074 16.2308 23.4439 15.5434 22.4164C14.856 21.389 13.9561 20.5217 12.9046 19.8734C11.4375 18.9677 9.65173 18.8625 7.92802 18.8625H0.394203C0.844511 27.9886 8.3723 35.25 17.5937 35.25Z" fill="black" fill-opacity="0.4"/>
<path d="M7.9285 17.1375H0.374023V5.925C0.374023 4.5525 0.918302 3.23623 1.88712 2.26572C2.85595 1.29522 4.16995 0.75 5.54007 0.75H16.7332V8.31757C16.7332 10.0443 16.6281 11.8331 15.7241 13.3028C15.0174 14.4517 14.052 15.4188 12.9051 16.1266C11.438 17.0323 9.65224 17.1375 7.9285 17.1375Z" fill="black" fill-opacity="0.4"/>
</g>
<defs>
<clipPath id="clip0_69_4505">
<rect width="143" height="36" fill="white"/>
</clipPath>
</defs>
</svg>
