<svg width="149" height="36" viewBox="0 0 149 36" fill="none" xmlns="http://www.w3.org/2000/svg">
<g clip-path="url(#clip0_69_4452)">
<path d="M45.4541 24.706H55.9297V21.545H49.1773V9.63867H45.4541V24.706Z" fill="black" fill-opacity="0.4"/>
<path d="M62.1362 22.5983C60.6427 22.5983 59.8644 21.2917 59.8644 19.3319C59.8644 17.3721 60.6427 16.0445 62.1362 16.0445C63.6297 16.0445 64.429 17.3721 64.429 19.3319C64.429 21.2917 63.6297 22.5983 62.1362 22.5983ZM62.1572 25.0428C65.628 25.0428 67.8999 22.5772 67.8999 19.3319C67.8999 16.0867 65.628 13.6211 62.1572 13.6211C58.7074 13.6211 56.3936 16.0867 56.3936 19.3319C56.3936 22.5772 58.7074 25.0428 62.1572 25.0428Z" fill="black" fill-opacity="0.4"/>
<path d="M73.9072 28.4361C75.5059 28.4361 76.9153 28.0779 77.8618 27.2349C78.7243 26.4552 79.2922 25.2751 79.2922 23.6525V13.9167H76.0107V15.0757H75.9687C75.3376 14.1696 74.37 13.6006 72.9396 13.6006C70.2681 13.6006 68.417 15.8343 68.417 18.9953C68.417 22.3038 70.6678 24.1161 73.0868 24.1161C74.391 24.1161 75.2114 23.5893 75.8425 22.8728H75.9266V23.9475C75.9266 25.254 75.3166 26.0127 73.8651 26.0127C72.7292 26.0127 72.1613 25.528 71.972 24.959H68.6484C68.9849 27.2139 70.9412 28.4361 73.9072 28.4361ZM73.8862 21.5662C72.603 21.5662 71.7616 20.5126 71.7616 18.89C71.7616 17.2462 72.603 16.1926 73.8862 16.1926C75.3166 16.1926 76.0738 17.4148 76.0738 18.8689C76.0738 20.3861 75.3797 21.5662 73.8862 21.5662Z" fill="black" fill-opacity="0.4"/>
<path d="M86.0395 22.5983C84.546 22.5983 83.7677 21.2917 83.7677 19.3319C83.7677 17.3721 84.546 16.0445 86.0395 16.0445C87.533 16.0445 88.3324 17.3721 88.3324 19.3319C88.3324 21.2917 87.533 22.5983 86.0395 22.5983ZM86.0605 25.0428C89.5314 25.0428 91.8032 22.5772 91.8032 19.3319C91.8032 16.0867 89.5314 13.6211 86.0605 13.6211C82.6108 13.6211 80.2969 16.0867 80.2969 19.3319C80.2969 22.5772 82.6108 25.0428 86.0605 25.0428Z" fill="black" fill-opacity="0.4"/>
<path d="M92.8037 24.706H96.2325V13.9165H92.8037V24.706ZM92.8037 12.4203H96.2325V9.63867H92.8037V12.4203Z" fill="black" fill-opacity="0.4"/>
<path d="M97.7207 28.2675H101.149V23.5893H101.192C101.865 24.4954 102.853 25.0433 104.242 25.0433C107.06 25.0433 108.933 22.8096 108.933 19.3114C108.933 16.0661 107.187 13.6006 104.326 13.6006C102.853 13.6006 101.802 14.2539 101.065 15.2232H101.002V13.9167H97.7207V28.2675ZM103.358 22.3881C101.886 22.3881 101.044 21.1869 101.044 19.4379C101.044 17.6888 101.802 16.3612 103.295 16.3612C104.768 16.3612 105.462 17.5834 105.462 19.4379C105.462 21.2712 104.662 22.3881 103.358 22.3881Z" fill="black" fill-opacity="0.4"/>
<path d="M114.515 25.0443C117.334 25.0443 119.416 23.822 119.416 21.4619C119.416 18.7013 117.187 18.2166 115.293 17.9005C113.926 17.6476 112.706 17.5422 112.706 16.7836C112.706 16.1093 113.358 15.7932 114.2 15.7932C115.146 15.7932 115.798 16.0882 115.924 17.0576H119.08C118.912 14.9292 117.271 13.6016 114.221 13.6016C111.675 13.6016 109.572 14.7817 109.572 17.0576C109.572 19.5863 111.57 20.0921 113.442 20.4082C114.873 20.6611 116.177 20.7664 116.177 21.7358C116.177 22.4312 115.525 22.8105 114.494 22.8105C113.358 22.8105 112.643 22.2837 112.517 21.209H109.277C109.383 23.5902 111.36 25.0443 114.515 25.0443Z" fill="black" fill-opacity="0.4"/>
<path d="M124.073 25.0235C125.567 25.0235 126.514 24.4335 127.292 23.3798H127.355V24.7074H130.636V13.918H127.208V19.9449C127.208 21.2304 126.493 22.1154 125.315 22.1154C124.221 22.1154 123.695 21.4622 123.695 20.2821V13.918H120.287V20.9986C120.287 23.4009 121.591 25.0235 124.073 25.0235Z" fill="black" fill-opacity="0.4"/>
<path d="M132.127 24.7071H135.556V18.6591C135.556 17.3737 136.187 16.4675 137.26 16.4675C138.29 16.4675 138.774 17.1419 138.774 18.3009V24.7071H142.203V18.6591C142.203 17.3737 142.813 16.4675 143.907 16.4675C144.937 16.4675 145.421 17.1419 145.421 18.3009V24.7071H148.85V17.6898C148.85 15.2663 147.63 13.6016 145.19 13.6016C143.802 13.6016 142.645 14.1916 141.803 15.4981H141.761C141.214 14.3391 140.141 13.6016 138.732 13.6016C137.175 13.6016 136.145 14.3391 135.472 15.456H135.408V13.9177H132.127V24.7071Z" fill="black" fill-opacity="0.4"/>
<path fill-rule="evenodd" clip-rule="evenodd" d="M18.129 35.243C27.8103 35.243 35.6585 27.3807 35.6585 17.682C35.6585 7.98341 27.8103 0.121094 18.129 0.121094C8.44778 0.121094 0.599609 7.98341 0.599609 17.682C0.599609 27.3807 8.44778 35.243 18.129 35.243ZM23.5976 8.30173C23.8638 7.3545 22.9462 6.79438 22.1082 7.39248L10.41 15.7412C9.50124 16.3898 9.64419 17.682 10.6248 17.682H13.7052V17.6582H19.7089L14.817 19.3873L12.6605 27.0624C12.3943 28.0097 13.3118 28.5698 14.1499 27.9716L25.848 19.623C26.7568 18.9744 26.6138 17.682 25.6333 17.682H20.9619L23.5976 8.30173Z" fill="black" fill-opacity="0.4"/>
</g>
<defs>
<clipPath id="clip0_69_4452">
<rect width="149" height="36" fill="white"/>
</clipPath>
</defs>
</svg>
