<svg width="145" height="36" viewBox="0 0 145 36" fill="none" xmlns="http://www.w3.org/2000/svg">
<g clip-path="url(#clip0_69_4448)">
<path d="M43.6377 25.1597H53.8924V22.074H47.2824V10.4512H43.6377V25.1597Z" fill="black" fill-opacity="0.4"/>
<path d="M59.9674 23.1023C58.5054 23.1023 57.7435 21.8269 57.7435 19.9137C57.7435 18.0006 58.5054 16.7046 59.9674 16.7046C61.4294 16.7046 62.2119 18.0006 62.2119 19.9137C62.2119 21.8269 61.4294 23.1023 59.9674 23.1023ZM59.988 25.4886C63.3856 25.4886 65.6095 23.0817 65.6095 19.9137C65.6095 16.7457 63.3856 14.3389 59.988 14.3389C56.6109 14.3389 54.3459 16.7457 54.3459 19.9137C54.3459 23.0817 56.6109 25.4886 59.988 25.4886Z" fill="black" fill-opacity="0.4"/>
<path d="M71.491 28.8005C73.0559 28.8005 74.4356 28.4508 75.3622 27.628C76.2065 26.8668 76.7624 25.7148 76.7624 24.1308V14.6268H73.5501V15.7583H73.5089C72.8912 14.8737 71.944 14.3183 70.5437 14.3183C67.9286 14.3183 66.1165 16.4988 66.1165 19.5845C66.1165 22.8143 68.3198 24.5834 70.6879 24.5834C71.9646 24.5834 72.7676 24.0691 73.3854 23.3697H73.4678V24.4188C73.4678 25.6943 72.8706 26.4348 71.4498 26.4348C70.3378 26.4348 69.7818 25.9617 69.5965 25.4063H66.343C66.6725 27.6074 68.5875 28.8005 71.491 28.8005ZM71.4704 22.0943C70.2143 22.0943 69.3906 21.0657 69.3906 19.4817C69.3906 17.8771 70.2143 16.8485 71.4704 16.8485C72.8706 16.8485 73.6119 18.0417 73.6119 19.4611C73.6119 20.9423 72.9324 22.0943 71.4704 22.0943Z" fill="black" fill-opacity="0.4"/>
<path d="M83.3675 23.1023C81.9055 23.1023 81.1436 21.8268 81.1436 19.9137C81.1436 18.0005 81.9055 16.7045 83.3675 16.7045C84.8295 16.7045 85.612 18.0005 85.612 19.9137C85.612 21.8268 84.8295 23.1023 83.3675 23.1023ZM83.3881 25.4885C86.7857 25.4885 89.0096 23.0817 89.0096 19.9137C89.0096 16.7457 86.7857 14.3388 83.3881 14.3388C80.011 14.3388 77.7459 16.7457 77.7459 19.9137C77.7459 23.0817 80.011 25.4885 83.3881 25.4885Z" fill="black" fill-opacity="0.4"/>
<path d="M89.9891 25.1597H93.3455V14.6272H89.9891V25.1597ZM89.9891 13.1666H93.3455V10.4512H89.9891V13.1666Z" fill="black" fill-opacity="0.4"/>
<path d="M94.8028 28.636H98.1592V24.0691H98.2004C98.8593 24.9537 99.8271 25.4885 101.186 25.4885C103.945 25.4885 105.778 23.308 105.778 19.8931C105.778 16.7251 104.069 14.3183 101.269 14.3183C99.8271 14.3183 98.7975 14.956 98.0768 15.9023H98.0151V14.6268H94.8028V28.636ZM100.321 22.8965C98.8799 22.8965 98.0562 21.724 98.0562 20.0165C98.0562 18.3091 98.7975 17.0131 100.26 17.0131C101.701 17.0131 102.381 18.2063 102.381 20.0165C102.381 21.8063 101.598 22.8965 100.321 22.8965Z" fill="black" fill-opacity="0.4"/>
<path d="M111.243 25.4886C114.002 25.4886 116.041 24.2955 116.041 21.9915C116.041 19.2966 113.858 18.8235 112.005 18.5149C110.666 18.2681 109.472 18.1652 109.472 17.4246C109.472 16.7664 110.11 16.4578 110.934 16.4578C111.861 16.4578 112.499 16.7458 112.623 17.6921H115.711C115.547 15.6144 113.94 14.3184 110.955 14.3184C108.463 14.3184 106.404 15.4704 106.404 17.6921C106.404 20.1606 108.36 20.6544 110.193 20.9629C111.593 21.2098 112.87 21.3126 112.87 22.2589C112.87 22.9378 112.231 23.3081 111.222 23.3081C110.11 23.3081 109.41 22.7938 109.287 21.7446H106.116C106.218 24.0692 108.154 25.4886 111.243 25.4886Z" fill="black" fill-opacity="0.4"/>
<path d="M120.6 25.4686C122.062 25.4686 122.989 24.8926 123.75 23.864H123.812V25.16H127.025V14.6274H123.668V20.5109C123.668 21.7657 122.968 22.6297 121.815 22.6297C120.744 22.6297 120.229 21.992 120.229 20.84V14.6274H116.893V21.5394C116.893 23.8846 118.17 25.4686 120.6 25.4686Z" fill="black" fill-opacity="0.4"/>
<path d="M128.484 25.1595H131.841V19.2555C131.841 18.0006 132.458 17.1161 133.509 17.1161C134.518 17.1161 134.991 17.7744 134.991 18.9058V25.1595H138.348V19.2555C138.348 18.0006 138.945 17.1161 140.016 17.1161C141.025 17.1161 141.498 17.7744 141.498 18.9058V25.1595H144.855V18.3092C144.855 15.9435 143.66 14.3184 141.272 14.3184C139.913 14.3184 138.78 14.8944 137.956 16.1698H137.915C137.38 15.0384 136.33 14.3184 134.95 14.3184C133.426 14.3184 132.417 15.0384 131.758 16.1286H131.696V14.6269H128.484V25.1595Z" fill="black" fill-opacity="0.4"/>
<path fill-rule="evenodd" clip-rule="evenodd" d="M17.7465 0.824219C27.409 0.824219 35.242 8.64948 35.242 18.3025C35.242 27.9555 27.409 35.7808 17.7465 35.7808C8.08397 35.7808 0.250977 27.9555 0.250977 18.3025C0.250977 8.64948 8.08397 0.824219 17.7465 0.824219ZM34.5705 18.3025C34.5705 9.02002 27.0381 1.49504 17.7465 1.49504C16.997 1.49504 16.259 1.544 15.5354 1.63889C16.0029 1.59806 16.476 1.57721 16.9541 1.57721C25.8327 1.57721 33.0303 8.76768 33.0303 17.6376C33.0303 26.5074 25.8327 33.6978 16.9541 33.6978C8.54842 33.6978 1.64949 27.2531 0.938365 19.0399C1.32467 27.9802 8.70212 35.1099 17.7465 35.1099C27.0381 35.1099 34.5705 27.585 34.5705 18.3025ZM32.3587 17.6376C32.3587 9.13814 25.4619 2.24804 16.9541 2.24804C16.2633 2.24804 15.5831 2.29347 14.9164 2.38149C15.3269 2.34698 15.7423 2.32937 16.1617 2.32937C24.2565 2.32937 30.8186 8.88502 30.8186 16.9717C30.8186 25.0585 24.2565 31.6141 16.1617 31.6141C8.50794 31.6141 2.22437 25.7533 1.56254 18.2788C1.89904 26.4808 8.66136 33.0271 16.9541 33.0271C25.4619 33.0271 32.3587 26.1369 32.3587 17.6376ZM16.1617 3.0002C23.8856 3.0002 30.1471 9.25548 30.1471 16.9717C30.1471 24.688 23.8856 30.9433 16.1617 30.9433C8.61683 30.9433 2.46731 24.9745 2.18645 17.5056C2.79283 24.247 8.46352 29.5303 15.3695 29.5303C22.6798 29.5303 28.6061 23.61 28.6061 16.3068C28.6061 9.00357 22.6798 3.0832 15.3695 3.0832C14.9913 3.0832 14.6167 3.09905 14.2466 3.13011C14.8728 3.04445 15.5121 3.0002 16.1617 3.0002ZM27.9345 16.3068C27.9345 9.37411 22.309 3.75403 15.3695 3.75403C14.7831 3.75403 14.2061 3.79414 13.6412 3.87178C13.9497 3.84766 14.2615 3.83538 14.5762 3.83538C21.1027 3.83538 26.3935 9.12091 26.3935 15.641C26.3935 22.1611 21.1027 27.4466 14.5762 27.4466C8.43329 27.4466 3.38513 22.7641 2.81293 16.7771C3.06049 23.4919 8.58749 28.8595 15.3695 28.8595C22.309 28.8595 27.9345 23.2395 27.9345 16.3068ZM14.5762 4.5062C20.7318 4.5062 25.7219 9.49145 25.7219 15.641C25.7219 21.7906 20.7318 26.7758 14.5762 26.7758C8.54179 26.7758 3.62746 21.9851 3.43618 16.0031C3.9528 21.2575 8.38842 25.3629 13.7838 25.3629C19.5265 25.3629 24.1818 20.7121 24.1818 14.9752C24.1818 9.23825 19.5265 4.58753 13.7838 4.58753C13.5205 4.58753 13.2594 4.59731 13.001 4.61653C13.5156 4.54381 14.0415 4.5062 14.5762 4.5062ZM23.5103 14.9752C23.5103 9.60871 19.1556 5.25836 13.7838 5.25836C13.2935 5.25836 12.8116 5.29461 12.3408 5.36457C12.5557 5.34919 12.7727 5.34136 12.9915 5.34136C17.9498 5.34136 21.9693 9.35688 21.9693 14.3102C21.9693 19.2637 17.9498 23.2791 12.9915 23.2791C8.34534 23.2791 4.52352 19.7533 4.06078 15.2337C4.19796 20.4807 8.49861 24.6921 13.7838 24.6921C19.1556 24.6921 23.5103 20.3417 23.5103 14.9752ZM12.9915 6.01219C17.579 6.01219 21.2977 9.72734 21.2977 14.3102C21.2977 18.8932 17.579 22.6083 12.9915 22.6083C8.46247 22.6083 4.78005 18.9871 4.68705 14.4848C5.10543 18.2596 8.30912 21.1954 12.1992 21.1954C16.3736 21.1954 19.7576 17.8147 19.7576 13.6445C19.7576 9.47422 16.3736 6.09352 12.1992 6.09352C12.0395 6.09352 11.8811 6.09847 11.7239 6.10821C12.1372 6.04498 12.5605 6.01219 12.9915 6.01219ZM19.0861 13.6445C19.0861 9.84468 16.0027 6.76435 12.1992 6.76435C11.8172 6.76435 11.4425 6.79541 11.0775 6.85515C11.1863 6.84942 11.2957 6.84652 11.406 6.84652C14.7964 6.84652 17.545 9.59234 17.545 12.9795C17.545 16.3667 14.7964 19.1125 11.406 19.1125C8.27092 19.1125 5.68475 16.7648 5.31283 13.7333C5.36044 17.4922 8.42533 20.5246 12.1992 20.5246C16.0027 20.5246 19.0861 17.4443 19.0861 13.6445ZM11.406 7.51734C14.4256 7.51734 16.8735 9.96279 16.8735 12.9795C16.8735 15.9962 14.4256 18.4417 11.406 18.4417C8.3863 18.4417 5.93839 15.9962 5.93839 12.9795C5.93839 12.9723 5.93841 12.965 5.93844 12.9578C6.25282 15.2567 8.22616 17.028 10.6136 17.028C13.2198 17.028 15.3325 14.9173 15.3325 12.3138C15.3325 9.71011 13.2198 7.59953 10.6136 7.59953C10.5547 7.59953 10.496 7.6006 10.4376 7.60275C10.7519 7.54663 11.0755 7.51734 11.406 7.51734ZM14.6609 12.3138C14.6609 10.0807 12.8489 8.27035 10.6136 8.27035C8.37831 8.27035 6.56624 10.0807 6.56624 12.3138C6.56624 14.5468 8.37831 16.3571 10.6136 16.3571C12.8489 16.3571 14.6609 14.5468 14.6609 12.3138Z" fill="black" fill-opacity="0.4"/>
</g>
<defs>
<clipPath id="clip0_69_4448">
<rect width="145" height="36" fill="white"/>
</clipPath>
</defs>
</svg>
