<svg width="149" height="36" viewBox="0 0 149 36" fill="none" xmlns="http://www.w3.org/2000/svg">
<g clip-path="url(#clip0_69_4493)">
<path d="M44.9434 25.747H55.4189V22.586H48.6666V10.6797H44.9434V25.747Z" fill="black" fill-opacity="0.4"/>
<path d="M61.6245 23.6403C60.131 23.6403 59.3527 22.3337 59.3527 20.3739C59.3527 18.4141 60.131 17.0865 61.6245 17.0865C63.118 17.0865 63.9173 18.4141 63.9173 20.3739C63.9173 22.3337 63.118 23.6403 61.6245 23.6403ZM61.6455 26.0847C65.1163 26.0847 67.3881 23.6192 67.3881 20.3739C67.3881 17.1286 65.1163 14.6631 61.6455 14.6631C58.1957 14.6631 55.8818 17.1286 55.8818 20.3739C55.8818 23.6192 58.1957 26.0847 61.6455 26.0847Z" fill="black" fill-opacity="0.4"/>
<path d="M73.3965 29.4771C74.9951 29.4771 76.4045 29.1189 77.3511 28.2759C78.2135 27.4962 78.7815 26.3161 78.7815 24.6935V14.9577H75.5V16.1167H75.4579C74.8269 15.2106 73.8592 14.6416 72.4288 14.6416C69.7574 14.6416 67.9062 16.8754 67.9062 20.0363C67.9062 23.3448 70.157 25.1571 72.5761 25.1571C73.8803 25.1571 74.7006 24.6303 75.3317 23.9138H75.4159V24.9885C75.4159 26.2951 74.8058 27.0537 73.3544 27.0537C72.2185 27.0537 71.6505 26.569 71.4612 26H68.1376C68.4742 28.2549 70.4305 29.4771 73.3965 29.4771ZM73.3754 22.6073C72.0923 22.6073 71.2509 21.5536 71.2509 19.931C71.2509 18.2873 72.0923 17.2336 73.3754 17.2336C74.8058 17.2336 75.5631 18.4558 75.5631 19.9099C75.5631 21.4272 74.8689 22.6073 73.3754 22.6073Z" fill="black" fill-opacity="0.4"/>
<path d="M85.5288 23.6403C84.0353 23.6403 83.257 22.3337 83.257 20.3739C83.257 18.4141 84.0353 17.0865 85.5288 17.0865C87.0223 17.0865 87.8213 18.4141 87.8213 20.3739C87.8213 22.3337 87.0223 23.6403 85.5288 23.6403ZM85.5498 26.0847C89.0203 26.0847 91.2921 23.6192 91.2921 20.3739C91.2921 17.1286 89.0203 14.6631 85.5498 14.6631C82.1 14.6631 79.7861 17.1286 79.7861 20.3739C79.7861 23.6192 82.1 26.0847 85.5498 26.0847Z" fill="black" fill-opacity="0.4"/>
<path d="M92.2949 25.747H95.7237V14.9575H92.2949V25.747ZM92.2949 13.4613H95.7237V10.6797H92.2949V13.4613Z" fill="black" fill-opacity="0.4"/>
<path d="M97.21 29.3085H100.639V24.6303H100.681C101.354 25.5364 102.343 26.0843 103.731 26.0843C106.55 26.0843 108.422 23.8506 108.422 20.3524C108.422 17.1072 106.676 14.6416 103.815 14.6416C102.343 14.6416 101.291 15.2949 100.555 16.2642H100.491V14.9577H97.21V29.3085ZM102.847 23.4291C101.375 23.4291 100.534 22.2279 100.534 20.4789C100.534 18.7298 101.291 17.4022 102.784 17.4022C104.257 17.4022 104.951 18.6244 104.951 20.4789C104.951 22.3122 104.152 23.4291 102.847 23.4291Z" fill="black" fill-opacity="0.4"/>
<path d="M114.004 26.0843C116.823 26.0843 118.906 24.8621 118.906 22.5019C118.906 19.7413 116.676 19.2566 114.783 18.9405C113.415 18.6877 112.195 18.5823 112.195 17.8237C112.195 17.1493 112.847 16.8332 113.689 16.8332C114.635 16.8332 115.288 17.1282 115.414 18.0976H118.569C118.401 15.9692 116.76 14.6416 113.71 14.6416C111.165 14.6416 109.061 15.8217 109.061 18.0976C109.061 20.6264 111.059 21.1321 112.932 21.4482C114.362 21.7011 115.666 21.8065 115.666 22.7758C115.666 23.4713 115.014 23.8506 113.983 23.8506C112.847 23.8506 112.132 23.3237 112.006 22.249H108.767C108.872 24.6303 110.849 26.0843 114.004 26.0843Z" fill="black" fill-opacity="0.4"/>
<path d="M123.564 26.0636C125.057 26.0636 126.004 25.4735 126.782 24.4199H126.845V25.7475H130.127V14.958H126.698V20.9849C126.698 22.2704 125.983 23.1555 124.805 23.1555C123.711 23.1555 123.185 22.5022 123.185 21.3221V14.958H119.777V22.0386C119.777 24.4409 121.082 26.0636 123.564 26.0636Z" fill="black" fill-opacity="0.4"/>
<path d="M131.618 25.7472H135.047V19.6992C135.047 18.4137 135.678 17.5076 136.751 17.5076C137.782 17.5076 138.265 18.1819 138.265 19.3409V25.7472H141.694V19.6992C141.694 18.4137 142.304 17.5076 143.398 17.5076C144.429 17.5076 144.912 18.1819 144.912 19.3409V25.7472H148.341V18.7298C148.341 16.3064 147.121 14.6416 144.681 14.6416C143.293 14.6416 142.136 15.2317 141.294 16.5382H141.252C140.705 15.3792 139.633 14.6416 138.223 14.6416C136.667 14.6416 135.636 15.3792 134.963 16.496H134.9V14.9577H131.618V25.7472Z" fill="black" fill-opacity="0.4"/>
<path fill-rule="evenodd" clip-rule="evenodd" d="M17.6182 35.4061C27.2996 35.4061 35.1477 27.5438 35.1477 17.8451C35.1477 8.14649 27.2996 0.28418 17.6182 0.28418C7.93704 0.28418 0.0888672 8.14649 0.0888672 17.8451C0.0888672 27.5438 7.93704 35.4061 17.6182 35.4061ZM20.3239 13.8523C21.8181 12.3553 21.8181 9.92828 20.3239 8.43129C18.8296 6.93433 16.407 6.93433 14.9127 8.43129C13.4185 9.92828 13.4185 12.3553 14.9127 13.8523L17.6182 16.5627L20.3239 13.8523ZM21.604 20.5557C23.0983 22.0526 25.5209 22.0526 27.0152 20.5557C28.5094 19.0587 28.5094 16.6317 27.0152 15.1347C25.5209 13.6378 23.0983 13.6378 21.604 15.1347L18.8984 17.8452L21.604 20.5557ZM20.3239 27.259C21.8181 25.762 21.8181 23.335 20.3239 21.838L17.6182 19.1276L14.9127 21.838C13.4185 23.335 13.4185 25.762 14.9127 27.259C16.407 28.756 18.8296 28.756 20.3239 27.259ZM8.22131 20.5557C6.72707 19.0587 6.72707 16.6317 8.22131 15.1347C9.71563 13.6378 12.1383 13.6378 13.6326 15.1347L16.3382 17.8452L13.6326 20.5557C12.1383 22.0526 9.71563 22.0526 8.22131 20.5557Z" fill="black" fill-opacity="0.4"/>
</g>
<defs>
<clipPath id="clip0_69_4493">
<rect width="149" height="36" fill="white"/>
</clipPath>
</defs>
</svg>
