<svg width="16" height="16" viewBox="0 0 16 16" fill="none" xmlns="http://www.w3.org/2000/svg">
<path d="M9.15141 2.29591L10.3246 4.66171C10.4846 4.99104 10.9112 5.30693 11.2712 5.36741L13.3976 5.72363C14.7575 5.95215 15.0775 6.94686 14.0975 7.92813L12.4444 9.59493C12.1644 9.87719 12.0111 10.4216 12.0977 10.8115L12.5711 12.8748C12.9443 14.508 12.0844 15.1398 10.6513 14.2862L8.65814 13.0966C8.29821 12.8815 7.70494 12.8815 7.33827 13.0966L5.34519 14.2862C3.91867 15.1398 3.05211 14.5013 3.4254 12.8748L3.89868 10.8115C3.98533 10.4216 3.83202 9.87719 3.55205 9.59493L1.8989 7.92813C0.925674 6.94686 1.23897 5.95215 2.59882 5.72363L4.72525 5.36741C5.07855 5.30693 5.50517 4.99104 5.66515 4.66171L6.83834 2.29591C7.47827 1.0122 8.51814 1.0122 9.15141 2.29591Z" fill="white" stroke="white" stroke-width="1.67143"/>
</svg>
