<svg width="32" height="32" viewBox="0 0 32 32" fill="none" xmlns="http://www.w3.org/2000/svg">
<path d="M3.33398 15.9997C3.33398 10.0286 3.33398 7.04299 5.18897 5.18799C7.04397 3.33301 10.0295 3.33301 16.0006 3.33301C21.9718 3.33301 24.9573 3.33301 26.8124 5.18799C28.6673 7.04299 28.6673 10.0286 28.6673 15.9997C28.6673 21.9707 28.6673 24.9563 26.8124 26.8114C24.9573 28.6663 21.9718 28.6663 16.0006 28.6663C10.0295 28.6663 7.04397 28.6663 5.18897 26.8114C3.33398 24.9563 3.33398 21.9707 3.33398 15.9997Z" stroke="white" stroke-linecap="round" stroke-linejoin="round"/>
<path d="M9.33398 22.6663L14.9254 17.075M17.076 14.9243L22.6673 22.6663H18.9636L14.9254 17.075L9.33398 9.33301H13.0377L17.076 14.9243ZM22.6673 9.33301L17.076 14.9243" stroke="white" stroke-linecap="round" stroke-linejoin="round"/>
</svg>
